<svg xmlns="http://www.w3.org/2000/svg" viewBox="0 0 790 96" color="#000" role="img" aria-label="Phia Games secondary display wordmark">
  <g fill="none" stroke="currentColor" stroke-linecap="square" stroke-linejoin="miter" stroke-width="10">
    <path d="M18 66V24H66C85 24 85 47 66 47H18"/>
    <path d="M112 24V66M162 24V66M112 45H162"/>
    <path d="M208 24V66"/>
    <path d="M254 66L282 24L310 66M268 53H296"/>
    <path d="M420 30H378C354 30 342 42 342 54C342 70 357 76 381 76H424V56H388"/>
    <path d="M462 76L490 30L518 76M476 62H504"/>
    <path d="M558 76V30L590 58L622 30V76"/>
    <path d="M666 30H714M666 53H706M666 76H714"/>
    <path d="M772 30H724V53H772V76H724"/>
  </g>
</svg>
