<svg xmlns="http://www.w3.org/2000/svg" viewBox="0 0 64 64" role="img" aria-label="Phia Games favicon">
  <defs>
    <linearGradient id="core" x1="14" x2="52" y1="12" y2="54">
      <stop offset="0" stop-color="#dffcff"/>
      <stop offset=".48" stop-color="#79f2ff"/>
      <stop offset="1" stop-color="#f2c47e"/>
    </linearGradient>
    <linearGradient id="orbit" x1="8" x2="58" y1="48" y2="16">
      <stop offset="0" stop-color="#79f2ff" stop-opacity="0"/>
      <stop offset=".55" stop-color="#9b8cff" stop-opacity=".92"/>
      <stop offset="1" stop-color="#f2c47e" stop-opacity=".82"/>
    </linearGradient>
  </defs>
  <rect width="64" height="64" rx="14" fill="#03060d"/>
  <path d="M10 40c8 10 27 12 40 2 8-6 8-15-1-21-11-8-31-5-41 6" fill="none" stroke="url(#orbit)" stroke-linecap="round" stroke-width="1.8"/>
  <path d="M22 50V15h15.5C46.5 15 52 19.4 52 27.3c0 7.8-5.5 12.6-14.5 12.6h-7.1V50H22Zm8.4-17.2h6.8c4 0 6.4-1.8 6.4-5.3 0-3.4-2.4-5.2-6.4-5.2h-6.8v10.5Z" fill="url(#core)"/>
  <path d="M31 45c4-8 9-11 16-11" fill="none" stroke="#dffcff" stroke-linecap="round" stroke-opacity=".78" stroke-width="1.8"/>
  <circle cx="49" cy="20" r="2" fill="#f2c47e"/>
</svg>
