<svg xmlns="http://www.w3.org/2000/svg" viewBox="0 0 260 210" color="#000" role="img" aria-label="Phia Games stacked lockup">
  <g transform="translate(82 4)">
    <path d="M9 65C13 54 35 40 58 35C78 31 87 38 76 50C60 67 22 77 9 68C6 66 6 63 9 60" fill="none" stroke="currentColor" stroke-linecap="round" stroke-width="2.8"/>
    <path d="M32 84V16H59C76 16 86 26 86 40C86 54 75 64 59 64H45V76L32 84ZM45 52H58C67 52 73 47 73 40C73 32 67 28 58 28H45V52Z" fill="currentColor" fill-rule="evenodd"/>
    <path d="M12 66C27 72 55 63 78 42" fill="none" stroke="currentColor" stroke-linecap="round" stroke-width="2.8"/>
    <circle cx="13" cy="62" r="4.6" fill="currentColor"/>
  </g>
  <g transform="translate(14 108)" fill="none" stroke="currentColor" stroke-linecap="square" stroke-linejoin="miter" stroke-width="5">
    <path d="M8 44V12H31C42 12 42 28 31 28H8"/>
    <path d="M58 12V44M86 12V44M58 28H86"/>
    <path d="M116 12V44"/>
    <path d="M146 44L162 12L178 44M153 34H171"/>
    <path d="M39 72H18C7 72 2 78 2 86C2 95 9 100 20 100H40V89H24"/>
    <path d="M61 100L76 70L91 100M68 91H84"/>
    <path d="M114 100V70L131 87L148 70V100"/>
    <path d="M172 70H198M172 85H194M172 100H198"/>
    <path d="M223 70H200V85H223V100H200"/>
  </g>
</svg>
