<svg xmlns="http://www.w3.org/2000/svg" viewBox="0 0 650 96" color="#000" role="img" aria-label="Phia Games horizontal lockup">
  <path d="M9 65C13 54 35 40 58 35C78 31 87 38 76 50C60 67 22 77 9 68C6 66 6 63 9 60" fill="none" stroke="currentColor" stroke-linecap="round" stroke-width="2.8"/>
  <path d="M32 84V16H59C76 16 86 26 86 40C86 54 75 64 59 64H45V76L32 84ZM45 52H58C67 52 73 47 73 40C73 32 67 28 58 28H45V52Z" fill="currentColor" fill-rule="evenodd"/>
  <path d="M12 66C27 72 55 63 78 42" fill="none" stroke="currentColor" stroke-linecap="round" stroke-width="2.8"/>
  <circle cx="13" cy="62" r="4.6" fill="currentColor"/>
  <g transform="translate(150 14)" fill="none" stroke="currentColor" stroke-linecap="square" stroke-linejoin="miter" stroke-width="5">
    <path d="M8 52V16H31C42 16 43 34 31 34H8"/>
    <path d="M58 16V52M86 16V52M58 34H86"/>
    <path d="M116 16V52"/>
    <path d="M146 52L162 16L178 52M153 41H171"/>
    <path d="M239 20H216C203 20 196 27 196 36C196 46 204 52 217 52H239V39H222"/>
    <path d="M260 52L276 16L292 52M267 41H285"/>
    <path d="M317 52V16L337 36L357 16V52"/>
    <path d="M385 16H414M385 34H409M385 52H414"/>
    <path d="M459 16H432V34H459V52H432"/>
  </g>
</svg>
