<svg xmlns="http://www.w3.org/2000/svg" viewBox="0 0 470 68" color="#000" role="img" aria-label="PHIA GAMES one-line wordmark">
  <g fill="none" stroke="currentColor" stroke-linecap="square" stroke-linejoin="miter" stroke-width="5">
    <path d="M8 52V16H31C42 16 43 34 31 34H8"/>
    <path d="M58 16V52M86 16V52M58 34H86"/>
    <path d="M116 16V52"/>
    <path d="M146 52L162 16L178 52M153 41H171"/>
    <path d="M239 20H216C203 20 196 27 196 36C196 46 204 52 217 52H239V39H222"/>
    <path d="M260 52L276 16L292 52M267 41H285"/>
    <path d="M317 52V16L337 36L357 16V52"/>
    <path d="M385 16H414M385 34H409M385 52H414"/>
    <path d="M459 16H432V34H459V52H432"/>
  </g>
</svg>
