<svg xmlns="http://www.w3.org/2000/svg" viewBox="0 0 232 112" color="#000" role="img" aria-label="PHIA GAMES stacked wordmark">
  <g fill="none" stroke="currentColor" stroke-linecap="square" stroke-linejoin="miter" stroke-width="5">
    <path d="M8 44V12H31C42 12 42 28 31 28H8"/>
    <path d="M58 12V44M86 12V44M58 28H86"/>
    <path d="M116 12V44"/>
    <path d="M146 44L162 12L178 44M153 34H171"/>
    <path d="M39 72H18C7 72 2 78 2 86C2 95 9 100 20 100H40V89H24"/>
    <path d="M61 100L76 70L91 100M68 91H84"/>
    <path d="M114 100V70L131 87L148 70V100"/>
    <path d="M172 70H198M172 85H194M172 100H198"/>
    <path d="M223 70H200V85H223V100H200"/>
  </g>
</svg>
