<svg xmlns="http://www.w3.org/2000/svg" width="1600" height="900" viewBox="0 0 1600 900" role="img" aria-label="hero-bg placeholder">
  
  <defs>
    <radialGradient id="aur-herobg" cx="32%" cy="8%" r="90%">
      <stop offset="0%" stop-color="#5fd7d2" stop-opacity="0.55"/>
      <stop offset="38%" stop-color="#8a7cf0" stop-opacity="0.18"/>
      <stop offset="100%" stop-color="#04060a" stop-opacity="0"/>
    </radialGradient>
    <linearGradient id="bg-herobg" x1="0" y1="0" x2="1" y2="1">
      <stop offset="0%" stop-color="#0b1220"/>
      <stop offset="55%" stop-color="#070b12"/>
      <stop offset="100%" stop-color="#04060a"/>
    </linearGradient>
    <linearGradient id="ink-herobg" x1="0" y1="0" x2="1" y2="1">
      <stop offset="0%" stop-color="#5fd7d2" stop-opacity="0.9"/>
      <stop offset="100%" stop-color="#8a7cf0" stop-opacity="0.5"/>
    </linearGradient>
    <filter id="soft-herobg" x="-40%" y="-40%" width="180%" height="180%">
      <feGaussianBlur stdDeviation="22"/>
    </filter>
    <filter id="grain-herobg">
      <feTurbulence type="fractalNoise" baseFrequency="0.85" numOctaves="2" stitchTiles="stitch"/>
      <feColorMatrix type="saturate" values="0"/>
      <feComponentTransfer><feFuncA type="linear" slope="0.06"/></feComponentTransfer>
    </filter>
  </defs>
  <rect width="1600" height="900" fill="url(#bg-herobg)"/>
  <rect width="1600" height="900" fill="url(#aur-herobg)"/>
  <g><line x1="0" y1="0" x2="0" y2="900" stroke="#8ca5c8" stroke-opacity="0.05" stroke-width="1"/><line x1="40" y1="0" x2="40" y2="900" stroke="#8ca5c8" stroke-opacity="0.05" stroke-width="1"/><line x1="80" y1="0" x2="80" y2="900" stroke="#8ca5c8" stroke-opacity="0.05" stroke-width="1"/><line x1="120" y1="0" x2="120" y2="900" stroke="#8ca5c8" stroke-opacity="0.05" stroke-width="1"/><line x1="160" y1="0" x2="160" y2="900" stroke="#8ca5c8" stroke-opacity="0.05" stroke-width="1"/><line x1="200" y1="0" x2="200" y2="900" stroke="#8ca5c8" stroke-opacity="0.05" stroke-width="1"/><line x1="240" y1="0" x2="240" y2="900" stroke="#8ca5c8" stroke-opacity="0.05" stroke-width="1"/><line x1="280" y1="0" x2="280" y2="900" stroke="#8ca5c8" stroke-opacity="0.05" stroke-width="1"/><line x1="320" y1="0" x2="320" y2="900" stroke="#8ca5c8" stroke-opacity="0.05" stroke-width="1"/><line x1="360" y1="0" x2="360" y2="900" stroke="#8ca5c8" stroke-opacity="0.05" stroke-width="1"/><line x1="400" y1="0" x2="400" y2="900" stroke="#8ca5c8" stroke-opacity="0.05" stroke-width="1"/><line x1="440" y1="0" x2="440" y2="900" stroke="#8ca5c8" stroke-opacity="0.05" stroke-width="1"/><line x1="480" y1="0" x2="480" y2="900" stroke="#8ca5c8" stroke-opacity="0.05" stroke-width="1"/><line x1="520" y1="0" x2="520" y2="900" stroke="#8ca5c8" stroke-opacity="0.05" stroke-width="1"/><line x1="560" y1="0" x2="560" y2="900" stroke="#8ca5c8" stroke-opacity="0.05" stroke-width="1"/><line x1="600" y1="0" x2="600" y2="900" stroke="#8ca5c8" stroke-opacity="0.05" stroke-width="1"/><line x1="640" y1="0" x2="640" y2="900" stroke="#8ca5c8" stroke-opacity="0.05" stroke-width="1"/><line x1="680" y1="0" x2="680" y2="900" stroke="#8ca5c8" stroke-opacity="0.05" stroke-width="1"/><line x1="720" y1="0" x2="720" y2="900" stroke="#8ca5c8" stroke-opacity="0.05" stroke-width="1"/><line x1="760" y1="0" x2="760" y2="900" stroke="#8ca5c8" stroke-opacity="0.05" stroke-width="1"/><line x1="800" y1="0" x2="800" y2="900" stroke="#8ca5c8" stroke-opacity="0.05" stroke-width="1"/><line x1="840" y1="0" x2="840" y2="900" stroke="#8ca5c8" stroke-opacity="0.05" stroke-width="1"/><line x1="880" y1="0" x2="880" y2="900" stroke="#8ca5c8" stroke-opacity="0.05" stroke-width="1"/><line x1="920" y1="0" x2="920" y2="900" stroke="#8ca5c8" stroke-opacity="0.05" stroke-width="1"/><line x1="960" y1="0" x2="960" y2="900" stroke="#8ca5c8" stroke-opacity="0.05" stroke-width="1"/><line x1="1000" y1="0" x2="1000" y2="900" stroke="#8ca5c8" stroke-opacity="0.05" stroke-width="1"/><line x1="1040" y1="0" x2="1040" y2="900" stroke="#8ca5c8" stroke-opacity="0.05" stroke-width="1"/><line x1="1080" y1="0" x2="1080" y2="900" stroke="#8ca5c8" stroke-opacity="0.05" stroke-width="1"/><line x1="1120" y1="0" x2="1120" y2="900" stroke="#8ca5c8" stroke-opacity="0.05" stroke-width="1"/><line x1="1160" y1="0" x2="1160" y2="900" stroke="#8ca5c8" stroke-opacity="0.05" stroke-width="1"/><line x1="1200" y1="0" x2="1200" y2="900" stroke="#8ca5c8" stroke-opacity="0.05" stroke-width="1"/><line x1="1240" y1="0" x2="1240" y2="900" stroke="#8ca5c8" stroke-opacity="0.05" stroke-width="1"/><line x1="1280" y1="0" x2="1280" y2="900" stroke="#8ca5c8" stroke-opacity="0.05" stroke-width="1"/><line x1="1320" y1="0" x2="1320" y2="900" stroke="#8ca5c8" stroke-opacity="0.05" stroke-width="1"/><line x1="1360" y1="0" x2="1360" y2="900" stroke="#8ca5c8" stroke-opacity="0.05" stroke-width="1"/><line x1="1400" y1="0" x2="1400" y2="900" stroke="#8ca5c8" stroke-opacity="0.05" stroke-width="1"/><line x1="1440" y1="0" x2="1440" y2="900" stroke="#8ca5c8" stroke-opacity="0.05" stroke-width="1"/><line x1="1480" y1="0" x2="1480" y2="900" stroke="#8ca5c8" stroke-opacity="0.05" stroke-width="1"/><line x1="1520" y1="0" x2="1520" y2="900" stroke="#8ca5c8" stroke-opacity="0.05" stroke-width="1"/><line x1="1560" y1="0" x2="1560" y2="900" stroke="#8ca5c8" stroke-opacity="0.05" stroke-width="1"/><line x1="1600" y1="0" x2="1600" y2="900" stroke="#8ca5c8" stroke-opacity="0.05" stroke-width="1"/><line x1="0" y1="0" x2="1600" y2="0" stroke="#8ca5c8" stroke-opacity="0.05" stroke-width="1"/><line x1="0" y1="40" x2="1600" y2="40" stroke="#8ca5c8" stroke-opacity="0.05" stroke-width="1"/><line x1="0" y1="80" x2="1600" y2="80" stroke="#8ca5c8" stroke-opacity="0.05" stroke-width="1"/><line x1="0" y1="120" x2="1600" y2="120" stroke="#8ca5c8" stroke-opacity="0.05" stroke-width="1"/><line x1="0" y1="160" x2="1600" y2="160" stroke="#8ca5c8" stroke-opacity="0.05" stroke-width="1"/><line x1="0" y1="200" x2="1600" y2="200" stroke="#8ca5c8" stroke-opacity="0.05" stroke-width="1"/><line x1="0" y1="240" x2="1600" y2="240" stroke="#8ca5c8" stroke-opacity="0.05" stroke-width="1"/><line x1="0" y1="280" x2="1600" y2="280" stroke="#8ca5c8" stroke-opacity="0.05" stroke-width="1"/><line x1="0" y1="320" x2="1600" y2="320" stroke="#8ca5c8" stroke-opacity="0.05" stroke-width="1"/><line x1="0" y1="360" x2="1600" y2="360" stroke="#8ca5c8" stroke-opacity="0.05" stroke-width="1"/><line x1="0" y1="400" x2="1600" y2="400" stroke="#8ca5c8" stroke-opacity="0.05" stroke-width="1"/><line x1="0" y1="440" x2="1600" y2="440" stroke="#8ca5c8" stroke-opacity="0.05" stroke-width="1"/><line x1="0" y1="480" x2="1600" y2="480" stroke="#8ca5c8" stroke-opacity="0.05" stroke-width="1"/><line x1="0" y1="520" x2="1600" y2="520" stroke="#8ca5c8" stroke-opacity="0.05" stroke-width="1"/><line x1="0" y1="560" x2="1600" y2="560" stroke="#8ca5c8" stroke-opacity="0.05" stroke-width="1"/><line x1="0" y1="600" x2="1600" y2="600" stroke="#8ca5c8" stroke-opacity="0.05" stroke-width="1"/><line x1="0" y1="640" x2="1600" y2="640" stroke="#8ca5c8" stroke-opacity="0.05" stroke-width="1"/><line x1="0" y1="680" x2="1600" y2="680" stroke="#8ca5c8" stroke-opacity="0.05" stroke-width="1"/><line x1="0" y1="720" x2="1600" y2="720" stroke="#8ca5c8" stroke-opacity="0.05" stroke-width="1"/><line x1="0" y1="760" x2="1600" y2="760" stroke="#8ca5c8" stroke-opacity="0.05" stroke-width="1"/><line x1="0" y1="800" x2="1600" y2="800" stroke="#8ca5c8" stroke-opacity="0.05" stroke-width="1"/><line x1="0" y1="840" x2="1600" y2="840" stroke="#8ca5c8" stroke-opacity="0.05" stroke-width="1"/><line x1="0" y1="880" x2="1600" y2="880" stroke="#8ca5c8" stroke-opacity="0.05" stroke-width="1"/></g>
  <g filter="url(#soft-herobg)" opacity="0.9"><path d="M -160 643.4539249035189
      C 612.8267572011861 435.8499799440265, 1213.458569928412 851.0578698630113, 1760.0000000000002 560.4123469197219" fill="none" stroke="#5fd7d2" stroke-opacity="0.23144254765274064" stroke-width="2.5116520963403515" stroke-linecap="round"/><path d="M -160 397.21285325875806
      C 436.70919674372055 130.82639854420592, 1131.2063617657884 663.5993079733103, 1760.0000000000002 290.6582713729372" fill="none" stroke="#8a7cf0" stroke-opacity="0.16041692447858324" stroke-width="1.4859519922374635" stroke-linecap="round"/><path d="M -160 649.0336245738514
      C 597.4512881686566 408.5794271404342, 1000.8731573170221 889.4878220072686, 1760.0000000000002 552.8519456004844" fill="none" stroke="#5fd7d2" stroke-opacity="0.24192248231776114" stroke-width="2.7078177035105924" stroke-linecap="round"/><path d="M -160 239.41213551429382
      C 539.7100423787978 53.56124517963295, 1253.7471704123884 425.2630258489547, 1760.0000000000002 165.07177938042946" fill="none" stroke="#8a7cf0" stroke-opacity="0.21231816409442533" stroke-width="2.0819394233361677" stroke-linecap="round"/><path d="M -160 213.15725151290124
      C 330.6135550166046 -78.74014978593684, 1003.2016518067571 505.0546528117393, 1760.0000000000002 96.398290993366" fill="none" stroke="#5fd7d2" stroke-opacity="0.17754699637590604" stroke-width="2.687489882876978" stroke-linecap="round"/></g>
  <g><circle cx="1380.0" cy="450.7" r="1.2" fill="#c7d2e0" fill-opacity="0.25"/><circle cx="1537.6" cy="829.2" r="0.7" fill="#c7d2e0" fill-opacity="0.59"/><circle cx="1536.9" cy="150.3" r="0.7" fill="#c7d2e0" fill-opacity="0.54"/><circle cx="982.5" cy="125.1" r="1.1" fill="#c7d2e0" fill-opacity="0.28"/><circle cx="634.1" cy="836.3" r="1.1" fill="#c7d2e0" fill-opacity="0.22"/><circle cx="461.7" cy="98.2" r="1.9" fill="#c7d2e0" fill-opacity="0.33"/><circle cx="564.4" cy="709.8" r="1.5" fill="#c7d2e0" fill-opacity="0.44"/><circle cx="978.4" cy="135.1" r="0.9" fill="#c7d2e0" fill-opacity="0.63"/><circle cx="1598.6" cy="366.3" r="0.4" fill="#c7d2e0" fill-opacity="0.23"/><circle cx="639.9" cy="354.8" r="1.5" fill="#c7d2e0" fill-opacity="0.41"/><circle cx="62.5" cy="216.7" r="0.4" fill="#c7d2e0" fill-opacity="0.43"/><circle cx="1185.6" cy="745.5" r="0.9" fill="#c7d2e0" fill-opacity="0.22"/><circle cx="1316.0" cy="890.5" r="0.7" fill="#c7d2e0" fill-opacity="0.47"/><circle cx="1015.1" cy="583.1" r="2.0" fill="#c7d2e0" fill-opacity="0.33"/><circle cx="30.5" cy="319.2" r="0.4" fill="#c7d2e0" fill-opacity="0.55"/><circle cx="316.4" cy="830.2" r="1.9" fill="#c7d2e0" fill-opacity="0.46"/><circle cx="1367.7" cy="101.0" r="0.6" fill="#c7d2e0" fill-opacity="0.27"/><circle cx="694.0" cy="516.9" r="0.8" fill="#c7d2e0" fill-opacity="0.49"/><circle cx="1457.0" cy="447.9" r="1.8" fill="#c7d2e0" fill-opacity="0.62"/><circle cx="897.2" cy="603.1" r="1.0" fill="#c7d2e0" fill-opacity="0.58"/><circle cx="774.3" cy="812.6" r="1.5" fill="#c7d2e0" fill-opacity="0.44"/><circle cx="1447.7" cy="20.9" r="1.7" fill="#c7d2e0" fill-opacity="0.60"/><circle cx="819.6" cy="797.5" r="0.4" fill="#c7d2e0" fill-opacity="0.19"/><circle cx="568.4" cy="99.9" r="2.1" fill="#c7d2e0" fill-opacity="0.59"/><circle cx="95.4" cy="444.8" r="2.2" fill="#c7d2e0" fill-opacity="0.22"/><circle cx="611.1" cy="272.0" r="1.8" fill="#c7d2e0" fill-opacity="0.55"/><circle cx="584.8" cy="807.5" r="2.1" fill="#c7d2e0" fill-opacity="0.40"/><circle cx="984.6" cy="359.1" r="2.2" fill="#c7d2e0" fill-opacity="0.65"/><circle cx="729.6" cy="302.5" r="0.9" fill="#c7d2e0" fill-opacity="0.15"/><circle cx="1583.2" cy="440.6" r="1.3" fill="#c7d2e0" fill-opacity="0.35"/></g>
  <rect width="1600" height="900" filter="url(#grain-herobg)" opacity="0.5"/>
  <g>
    <path d="M16 42 L16 16 L42 16" stroke="#5fd7d2" stroke-opacity="0.7" stroke-width="1.5" fill="none"/>
    <path d="M1558 16 L1584 16 L1584 42" stroke="#5fd7d2" stroke-opacity="0.7" stroke-width="1.5" fill="none"/>
    <path d="M1584 858 L1584 884 L1558 884" stroke="#5fd7d2" stroke-opacity="0.7" stroke-width="1.5" fill="none"/>
    <path d="M42 884 L16 884 L16 858" stroke="#5fd7d2" stroke-opacity="0.7" stroke-width="1.5" fill="none"/>
  </g>
  <g font-family="'JetBrains Mono', monospace">
    <rect x="20" y="856" width="127" height="24" rx="12"
      fill="#04060a" fill-opacity="0.55" stroke="#5fd7d2" stroke-opacity="0.4"/>
    <circle cx="36" cy="868" r="3" fill="#5fd7d2"/>
    <text x="48" y="872" fill="#c7d2e0" fill-opacity="0.85" font-size="11" letter-spacing="2">LAB // HERO</text>
  </g>
</svg>