<svg xmlns="http://www.w3.org/2000/svg" width="640" height="480" viewBox="0 0 640 480" role="img" aria-label="lab-prompt placeholder">
  
  <defs>
    <radialGradient id="aur-labprompt" cx="32%" cy="8%" r="90%">
      <stop offset="0%" stop-color="#c7d2e0" stop-opacity="0.55"/>
      <stop offset="38%" stop-color="#8a7cf0" stop-opacity="0.18"/>
      <stop offset="100%" stop-color="#04060a" stop-opacity="0"/>
    </radialGradient>
    <linearGradient id="bg-labprompt" x1="0" y1="0" x2="1" y2="1">
      <stop offset="0%" stop-color="#0b1220"/>
      <stop offset="55%" stop-color="#070b12"/>
      <stop offset="100%" stop-color="#04060a"/>
    </linearGradient>
    <linearGradient id="ink-labprompt" x1="0" y1="0" x2="1" y2="1">
      <stop offset="0%" stop-color="#c7d2e0" stop-opacity="0.9"/>
      <stop offset="100%" stop-color="#8a7cf0" stop-opacity="0.5"/>
    </linearGradient>
    <filter id="soft-labprompt" x="-40%" y="-40%" width="180%" height="180%">
      <feGaussianBlur stdDeviation="22"/>
    </filter>
    <filter id="grain-labprompt">
      <feTurbulence type="fractalNoise" baseFrequency="0.85" numOctaves="2" stitchTiles="stitch"/>
      <feColorMatrix type="saturate" values="0"/>
      <feComponentTransfer><feFuncA type="linear" slope="0.06"/></feComponentTransfer>
    </filter>
  </defs>
  <rect width="640" height="480" fill="url(#bg-labprompt)"/>
  <rect width="640" height="480" fill="url(#aur-labprompt)"/>
  <g><line x1="0" y1="0" x2="0" y2="480" stroke="#8ca5c8" stroke-opacity="0.05" stroke-width="1"/><line x1="40" y1="0" x2="40" y2="480" stroke="#8ca5c8" stroke-opacity="0.05" stroke-width="1"/><line x1="80" y1="0" x2="80" y2="480" stroke="#8ca5c8" stroke-opacity="0.05" stroke-width="1"/><line x1="120" y1="0" x2="120" y2="480" stroke="#8ca5c8" stroke-opacity="0.05" stroke-width="1"/><line x1="160" y1="0" x2="160" y2="480" stroke="#8ca5c8" stroke-opacity="0.05" stroke-width="1"/><line x1="200" y1="0" x2="200" y2="480" stroke="#8ca5c8" stroke-opacity="0.05" stroke-width="1"/><line x1="240" y1="0" x2="240" y2="480" stroke="#8ca5c8" stroke-opacity="0.05" stroke-width="1"/><line x1="280" y1="0" x2="280" y2="480" stroke="#8ca5c8" stroke-opacity="0.05" stroke-width="1"/><line x1="320" y1="0" x2="320" y2="480" stroke="#8ca5c8" stroke-opacity="0.05" stroke-width="1"/><line x1="360" y1="0" x2="360" y2="480" stroke="#8ca5c8" stroke-opacity="0.05" stroke-width="1"/><line x1="400" y1="0" x2="400" y2="480" stroke="#8ca5c8" stroke-opacity="0.05" stroke-width="1"/><line x1="440" y1="0" x2="440" y2="480" stroke="#8ca5c8" stroke-opacity="0.05" stroke-width="1"/><line x1="480" y1="0" x2="480" y2="480" stroke="#8ca5c8" stroke-opacity="0.05" stroke-width="1"/><line x1="520" y1="0" x2="520" y2="480" stroke="#8ca5c8" stroke-opacity="0.05" stroke-width="1"/><line x1="560" y1="0" x2="560" y2="480" stroke="#8ca5c8" stroke-opacity="0.05" stroke-width="1"/><line x1="600" y1="0" x2="600" y2="480" stroke="#8ca5c8" stroke-opacity="0.05" stroke-width="1"/><line x1="640" y1="0" x2="640" y2="480" stroke="#8ca5c8" stroke-opacity="0.05" stroke-width="1"/><line x1="0" y1="0" x2="640" y2="0" stroke="#8ca5c8" stroke-opacity="0.05" stroke-width="1"/><line x1="0" y1="40" x2="640" y2="40" stroke="#8ca5c8" stroke-opacity="0.05" stroke-width="1"/><line x1="0" y1="80" x2="640" y2="80" stroke="#8ca5c8" stroke-opacity="0.05" stroke-width="1"/><line x1="0" y1="120" x2="640" y2="120" stroke="#8ca5c8" stroke-opacity="0.05" stroke-width="1"/><line x1="0" y1="160" x2="640" y2="160" stroke="#8ca5c8" stroke-opacity="0.05" stroke-width="1"/><line x1="0" y1="200" x2="640" y2="200" stroke="#8ca5c8" stroke-opacity="0.05" stroke-width="1"/><line x1="0" y1="240" x2="640" y2="240" stroke="#8ca5c8" stroke-opacity="0.05" stroke-width="1"/><line x1="0" y1="280" x2="640" y2="280" stroke="#8ca5c8" stroke-opacity="0.05" stroke-width="1"/><line x1="0" y1="320" x2="640" y2="320" stroke="#8ca5c8" stroke-opacity="0.05" stroke-width="1"/><line x1="0" y1="360" x2="640" y2="360" stroke="#8ca5c8" stroke-opacity="0.05" stroke-width="1"/><line x1="0" y1="400" x2="640" y2="400" stroke="#8ca5c8" stroke-opacity="0.05" stroke-width="1"/><line x1="0" y1="440" x2="640" y2="440" stroke="#8ca5c8" stroke-opacity="0.05" stroke-width="1"/><line x1="0" y1="480" x2="640" y2="480" stroke="#8ca5c8" stroke-opacity="0.05" stroke-width="1"/></g>
  
      <circle cx="396.8" cy="201.6" r="134.4" fill="url(#ink-labprompt)" fill-opacity="0.18" filter="url(#soft-labprompt)"/>
      <circle cx="396.8" cy="201.6" r="134.4" fill="none" stroke="url(#ink-labprompt)" stroke-opacity="0.6" stroke-width="1.5"/>
      <circle cx="396.8" cy="201.6" r="83.328" fill="none" stroke="#c7d2e0" stroke-opacity="0.18" stroke-width="1"/>
      <g filter="url(#soft-labprompt)" opacity="0.9"><path d="M -64 297.92089254640064
      C 162.02234617667796 201.6100156568014, 419.9732499206376 394.23176943599987, 704 259.39654179056095" fill="none" stroke="#c7d2e0" stroke-opacity="0.20983466634755832" stroke-width="1.0755045319151841" stroke-linecap="round"/><path d="M -64 250.32881311940235
      C 139.6243406263237 176.74752220007304, 427.79322690791287 323.9101040387317, 704 220.8962967516706" fill="none" stroke="#8a7cf0" stroke-opacity="0.22899756881152222" stroke-width="2.9353491651675077" stroke-linecap="round"/><path d="M -64 268.71833840308676
      C 233.0407696312854 183.19629160854885, 393.24650705075976 354.2403851976247, 704 234.50951968527158" fill="none" stroke="#c7d2e0" stroke-opacity="0.22357845539776106" stroke-width="2.806783429395124" stroke-linecap="round"/></g>
  <g><circle cx="450.7" cy="44.3" r="1.7" fill="#c7d2e0" fill-opacity="0.44"/><circle cx="232.4" cy="260.7" r="2.2" fill="#c7d2e0" fill-opacity="0.39"/><circle cx="102.7" cy="384.8" r="1.2" fill="#c7d2e0" fill-opacity="0.23"/><circle cx="265.3" cy="421.9" r="1.6" fill="#c7d2e0" fill-opacity="0.55"/><circle cx="626.0" cy="369.1" r="1.2" fill="#c7d2e0" fill-opacity="0.29"/><circle cx="78.2" cy="378.8" r="0.8" fill="#c7d2e0" fill-opacity="0.55"/><circle cx="0.3" cy="455.3" r="1.2" fill="#c7d2e0" fill-opacity="0.37"/><circle cx="532.1" cy="82.9" r="0.9" fill="#c7d2e0" fill-opacity="0.26"/><circle cx="123.1" cy="222.4" r="0.7" fill="#c7d2e0" fill-opacity="0.34"/><circle cx="41.1" cy="154.0" r="1.4" fill="#c7d2e0" fill-opacity="0.55"/><circle cx="330.8" cy="3.0" r="1.1" fill="#c7d2e0" fill-opacity="0.50"/><circle cx="113.9" cy="227.6" r="1.3" fill="#c7d2e0" fill-opacity="0.31"/><circle cx="559.6" cy="24.7" r="1.7" fill="#c7d2e0" fill-opacity="0.58"/><circle cx="54.9" cy="91.8" r="1.9" fill="#c7d2e0" fill-opacity="0.19"/><circle cx="67.0" cy="422.8" r="0.5" fill="#c7d2e0" fill-opacity="0.37"/><circle cx="25.1" cy="254.6" r="2.1" fill="#c7d2e0" fill-opacity="0.38"/><circle cx="33.2" cy="202.4" r="1.1" fill="#c7d2e0" fill-opacity="0.54"/><circle cx="303.9" cy="21.1" r="0.5" fill="#c7d2e0" fill-opacity="0.20"/><circle cx="442.2" cy="430.5" r="0.9" fill="#c7d2e0" fill-opacity="0.61"/><circle cx="590.2" cy="280.9" r="0.9" fill="#c7d2e0" fill-opacity="0.17"/><circle cx="202.8" cy="138.2" r="1.8" fill="#c7d2e0" fill-opacity="0.52"/><circle cx="623.3" cy="444.7" r="0.5" fill="#c7d2e0" fill-opacity="0.40"/><circle cx="510.2" cy="293.0" r="0.8" fill="#c7d2e0" fill-opacity="0.44"/><circle cx="204.5" cy="92.1" r="1.4" fill="#c7d2e0" fill-opacity="0.52"/><circle cx="567.3" cy="0.9" r="0.8" fill="#c7d2e0" fill-opacity="0.18"/><circle cx="538.5" cy="48.5" r="2.0" fill="#c7d2e0" fill-opacity="0.34"/><circle cx="385.7" cy="298.4" r="1.1" fill="#c7d2e0" fill-opacity="0.27"/><circle cx="494.1" cy="12.5" r="2.2" fill="#c7d2e0" fill-opacity="0.60"/><circle cx="426.9" cy="175.1" r="1.3" fill="#c7d2e0" fill-opacity="0.21"/><circle cx="585.9" cy="412.6" r="1.5" fill="#c7d2e0" fill-opacity="0.46"/></g>
  <rect width="640" height="480" filter="url(#grain-labprompt)" opacity="0.5"/>
  <g>
    <path d="M16 42 L16 16 L42 16" stroke="#c7d2e0" stroke-opacity="0.7" stroke-width="1.5" fill="none"/>
    <path d="M598 16 L624 16 L624 42" stroke="#c7d2e0" stroke-opacity="0.7" stroke-width="1.5" fill="none"/>
    <path d="M624 438 L624 464 L598 464" stroke="#c7d2e0" stroke-opacity="0.7" stroke-width="1.5" fill="none"/>
    <path d="M42 464 L16 464 L16 438" stroke="#c7d2e0" stroke-opacity="0.7" stroke-width="1.5" fill="none"/>
  </g>
  <g font-family="'JetBrains Mono', monospace">
    <rect x="20" y="436" width="120" height="24" rx="12"
      fill="#04060a" fill-opacity="0.55" stroke="#c7d2e0" stroke-opacity="0.4"/>
    <circle cx="36" cy="448" r="3" fill="#c7d2e0"/>
    <text x="48" y="452" fill="#c7d2e0" fill-opacity="0.85" font-size="11" letter-spacing="2">PROMPT</text>
  </g>
</svg>