<svg xmlns="http://www.w3.org/2000/svg" width="640" height="480" viewBox="0 0 640 480" role="img" aria-label="lab-fluid placeholder">
  
  <defs>
    <radialGradient id="aur-labfluid" cx="32%" cy="8%" r="90%">
      <stop offset="0%" stop-color="#5fd7d2" stop-opacity="0.55"/>
      <stop offset="38%" stop-color="#8a7cf0" stop-opacity="0.18"/>
      <stop offset="100%" stop-color="#04060a" stop-opacity="0"/>
    </radialGradient>
    <linearGradient id="bg-labfluid" x1="0" y1="0" x2="1" y2="1">
      <stop offset="0%" stop-color="#0b1220"/>
      <stop offset="55%" stop-color="#070b12"/>
      <stop offset="100%" stop-color="#04060a"/>
    </linearGradient>
    <linearGradient id="ink-labfluid" x1="0" y1="0" x2="1" y2="1">
      <stop offset="0%" stop-color="#5fd7d2" stop-opacity="0.9"/>
      <stop offset="100%" stop-color="#8a7cf0" stop-opacity="0.5"/>
    </linearGradient>
    <filter id="soft-labfluid" x="-40%" y="-40%" width="180%" height="180%">
      <feGaussianBlur stdDeviation="22"/>
    </filter>
    <filter id="grain-labfluid">
      <feTurbulence type="fractalNoise" baseFrequency="0.85" numOctaves="2" stitchTiles="stitch"/>
      <feColorMatrix type="saturate" values="0"/>
      <feComponentTransfer><feFuncA type="linear" slope="0.06"/></feComponentTransfer>
    </filter>
  </defs>
  <rect width="640" height="480" fill="url(#bg-labfluid)"/>
  <rect width="640" height="480" fill="url(#aur-labfluid)"/>
  <g><line x1="0" y1="0" x2="0" y2="480" stroke="#8ca5c8" stroke-opacity="0.05" stroke-width="1"/><line x1="40" y1="0" x2="40" y2="480" stroke="#8ca5c8" stroke-opacity="0.05" stroke-width="1"/><line x1="80" y1="0" x2="80" y2="480" stroke="#8ca5c8" stroke-opacity="0.05" stroke-width="1"/><line x1="120" y1="0" x2="120" y2="480" stroke="#8ca5c8" stroke-opacity="0.05" stroke-width="1"/><line x1="160" y1="0" x2="160" y2="480" stroke="#8ca5c8" stroke-opacity="0.05" stroke-width="1"/><line x1="200" y1="0" x2="200" y2="480" stroke="#8ca5c8" stroke-opacity="0.05" stroke-width="1"/><line x1="240" y1="0" x2="240" y2="480" stroke="#8ca5c8" stroke-opacity="0.05" stroke-width="1"/><line x1="280" y1="0" x2="280" y2="480" stroke="#8ca5c8" stroke-opacity="0.05" stroke-width="1"/><line x1="320" y1="0" x2="320" y2="480" stroke="#8ca5c8" stroke-opacity="0.05" stroke-width="1"/><line x1="360" y1="0" x2="360" y2="480" stroke="#8ca5c8" stroke-opacity="0.05" stroke-width="1"/><line x1="400" y1="0" x2="400" y2="480" stroke="#8ca5c8" stroke-opacity="0.05" stroke-width="1"/><line x1="440" y1="0" x2="440" y2="480" stroke="#8ca5c8" stroke-opacity="0.05" stroke-width="1"/><line x1="480" y1="0" x2="480" y2="480" stroke="#8ca5c8" stroke-opacity="0.05" stroke-width="1"/><line x1="520" y1="0" x2="520" y2="480" stroke="#8ca5c8" stroke-opacity="0.05" stroke-width="1"/><line x1="560" y1="0" x2="560" y2="480" stroke="#8ca5c8" stroke-opacity="0.05" stroke-width="1"/><line x1="600" y1="0" x2="600" y2="480" stroke="#8ca5c8" stroke-opacity="0.05" stroke-width="1"/><line x1="640" y1="0" x2="640" y2="480" stroke="#8ca5c8" stroke-opacity="0.05" stroke-width="1"/><line x1="0" y1="0" x2="640" y2="0" stroke="#8ca5c8" stroke-opacity="0.05" stroke-width="1"/><line x1="0" y1="40" x2="640" y2="40" stroke="#8ca5c8" stroke-opacity="0.05" stroke-width="1"/><line x1="0" y1="80" x2="640" y2="80" stroke="#8ca5c8" stroke-opacity="0.05" stroke-width="1"/><line x1="0" y1="120" x2="640" y2="120" stroke="#8ca5c8" stroke-opacity="0.05" stroke-width="1"/><line x1="0" y1="160" x2="640" y2="160" stroke="#8ca5c8" stroke-opacity="0.05" stroke-width="1"/><line x1="0" y1="200" x2="640" y2="200" stroke="#8ca5c8" stroke-opacity="0.05" stroke-width="1"/><line x1="0" y1="240" x2="640" y2="240" stroke="#8ca5c8" stroke-opacity="0.05" stroke-width="1"/><line x1="0" y1="280" x2="640" y2="280" stroke="#8ca5c8" stroke-opacity="0.05" stroke-width="1"/><line x1="0" y1="320" x2="640" y2="320" stroke="#8ca5c8" stroke-opacity="0.05" stroke-width="1"/><line x1="0" y1="360" x2="640" y2="360" stroke="#8ca5c8" stroke-opacity="0.05" stroke-width="1"/><line x1="0" y1="400" x2="640" y2="400" stroke="#8ca5c8" stroke-opacity="0.05" stroke-width="1"/><line x1="0" y1="440" x2="640" y2="440" stroke="#8ca5c8" stroke-opacity="0.05" stroke-width="1"/><line x1="0" y1="480" x2="640" y2="480" stroke="#8ca5c8" stroke-opacity="0.05" stroke-width="1"/></g>
  <g filter="url(#soft-labfluid)" opacity="0.9"><path d="M -64 206.97368871769254
      C 234.07771297778882 60.21598077104798, 459.3699437853344 353.7313966643371, 704 148.2706055390347" fill="none" stroke="#5fd7d2" stroke-opacity="0.13392444368776038" stroke-width="2.535002023339039" stroke-linecap="round"/><path d="M -64 136.31072738215113
      C 147.18709624260364 63.50589350673974, 407.582484340198 209.11556125756252, 704 107.18879383198657" fill="none" stroke="#8a7cf0" stroke-opacity="0.19636949112554303" stroke-width="1.6178861712612878" stroke-linecap="round"/><path d="M -64 248.92264137252297
      C 142.96496564498287 187.08437458832853, 405.65111592916094 310.76090815671745, 704 224.1873346588452" fill="none" stroke="#5fd7d2" stroke-opacity="0.27892096921776444" stroke-width="2.311568055607278" stroke-linecap="round"/><path d="M -64 319.19367269407815
      C 231.6805892232062 204.41487067556358, 402.9532761319897 433.9724747125927, 704 273.2821518866723" fill="none" stroke="#8a7cf0" stroke-opacity="0.22182526445524425" stroke-width="2.3530554130098444" stroke-linecap="round"/><path d="M -64 124.88780120687741
      C 135.0528504268855 47.018373173246715, 412.0707787638695 202.7572292405081, 704 93.74002999342514" fill="none" stroke="#5fd7d2" stroke-opacity="0.17408917752422606" stroke-width="2.1855203407782877" stroke-linecap="round"/></g>
  <g><circle cx="249.3" cy="404.2" r="1.0" fill="#c7d2e0" fill-opacity="0.65"/><circle cx="621.3" cy="149.7" r="2.0" fill="#c7d2e0" fill-opacity="0.26"/><circle cx="477.3" cy="391.8" r="0.8" fill="#c7d2e0" fill-opacity="0.16"/><circle cx="176.9" cy="244.9" r="1.5" fill="#c7d2e0" fill-opacity="0.30"/><circle cx="148.0" cy="77.0" r="0.5" fill="#c7d2e0" fill-opacity="0.30"/><circle cx="263.7" cy="162.8" r="2.1" fill="#c7d2e0" fill-opacity="0.36"/><circle cx="250.7" cy="24.9" r="1.6" fill="#c7d2e0" fill-opacity="0.48"/><circle cx="257.5" cy="61.7" r="1.5" fill="#c7d2e0" fill-opacity="0.54"/><circle cx="233.6" cy="458.5" r="1.0" fill="#c7d2e0" fill-opacity="0.27"/><circle cx="129.0" cy="180.1" r="2.1" fill="#c7d2e0" fill-opacity="0.43"/><circle cx="524.8" cy="401.4" r="1.6" fill="#c7d2e0" fill-opacity="0.41"/><circle cx="264.2" cy="54.6" r="0.8" fill="#c7d2e0" fill-opacity="0.37"/><circle cx="613.8" cy="89.7" r="1.7" fill="#c7d2e0" fill-opacity="0.43"/><circle cx="46.3" cy="46.4" r="1.4" fill="#c7d2e0" fill-opacity="0.22"/><circle cx="372.7" cy="414.2" r="0.5" fill="#c7d2e0" fill-opacity="0.49"/><circle cx="316.4" cy="378.9" r="1.0" fill="#c7d2e0" fill-opacity="0.45"/><circle cx="137.1" cy="352.6" r="0.7" fill="#c7d2e0" fill-opacity="0.29"/><circle cx="115.2" cy="84.8" r="0.4" fill="#c7d2e0" fill-opacity="0.23"/><circle cx="187.9" cy="71.9" r="1.2" fill="#c7d2e0" fill-opacity="0.24"/><circle cx="504.1" cy="183.3" r="0.5" fill="#c7d2e0" fill-opacity="0.28"/><circle cx="272.1" cy="100.4" r="1.8" fill="#c7d2e0" fill-opacity="0.18"/><circle cx="106.2" cy="47.3" r="1.4" fill="#c7d2e0" fill-opacity="0.36"/><circle cx="444.6" cy="409.8" r="1.5" fill="#c7d2e0" fill-opacity="0.33"/><circle cx="288.0" cy="400.4" r="1.0" fill="#c7d2e0" fill-opacity="0.35"/><circle cx="28.6" cy="367.5" r="2.2" fill="#c7d2e0" fill-opacity="0.38"/><circle cx="140.2" cy="464.4" r="2.0" fill="#c7d2e0" fill-opacity="0.58"/><circle cx="457.8" cy="38.8" r="1.0" fill="#c7d2e0" fill-opacity="0.21"/><circle cx="459.3" cy="296.2" r="1.3" fill="#c7d2e0" fill-opacity="0.28"/><circle cx="476.7" cy="439.1" r="1.4" fill="#c7d2e0" fill-opacity="0.30"/><circle cx="88.6" cy="155.2" r="0.5" fill="#c7d2e0" fill-opacity="0.61"/></g>
  <rect width="640" height="480" filter="url(#grain-labfluid)" opacity="0.5"/>
  <g>
    <path d="M16 42 L16 16 L42 16" stroke="#5fd7d2" stroke-opacity="0.7" stroke-width="1.5" fill="none"/>
    <path d="M598 16 L624 16 L624 42" stroke="#5fd7d2" stroke-opacity="0.7" stroke-width="1.5" fill="none"/>
    <path d="M624 438 L624 464 L598 464" stroke="#5fd7d2" stroke-opacity="0.7" stroke-width="1.5" fill="none"/>
    <path d="M42 464 L16 464 L16 438" stroke="#5fd7d2" stroke-opacity="0.7" stroke-width="1.5" fill="none"/>
  </g>
  <g font-family="'JetBrains Mono', monospace">
    <rect x="20" y="436" width="120" height="24" rx="12"
      fill="#04060a" fill-opacity="0.55" stroke="#5fd7d2" stroke-opacity="0.4"/>
    <circle cx="36" cy="448" r="3" fill="#5fd7d2"/>
    <text x="48" y="452" fill="#c7d2e0" fill-opacity="0.85" font-size="11" letter-spacing="2">FLUID</text>
  </g>
</svg>