<svg xmlns="http://www.w3.org/2000/svg" width="640" height="480" viewBox="0 0 640 480" role="img" aria-label="lab-concept placeholder">
  
  <defs>
    <radialGradient id="aur-labconcept" cx="32%" cy="8%" r="90%">
      <stop offset="0%" stop-color="#8a7cf0" stop-opacity="0.55"/>
      <stop offset="38%" stop-color="#8a7cf0" stop-opacity="0.18"/>
      <stop offset="100%" stop-color="#04060a" stop-opacity="0"/>
    </radialGradient>
    <linearGradient id="bg-labconcept" x1="0" y1="0" x2="1" y2="1">
      <stop offset="0%" stop-color="#0b1220"/>
      <stop offset="55%" stop-color="#070b12"/>
      <stop offset="100%" stop-color="#04060a"/>
    </linearGradient>
    <linearGradient id="ink-labconcept" x1="0" y1="0" x2="1" y2="1">
      <stop offset="0%" stop-color="#8a7cf0" stop-opacity="0.9"/>
      <stop offset="100%" stop-color="#8a7cf0" stop-opacity="0.5"/>
    </linearGradient>
    <filter id="soft-labconcept" x="-40%" y="-40%" width="180%" height="180%">
      <feGaussianBlur stdDeviation="22"/>
    </filter>
    <filter id="grain-labconcept">
      <feTurbulence type="fractalNoise" baseFrequency="0.85" numOctaves="2" stitchTiles="stitch"/>
      <feColorMatrix type="saturate" values="0"/>
      <feComponentTransfer><feFuncA type="linear" slope="0.06"/></feComponentTransfer>
    </filter>
  </defs>
  <rect width="640" height="480" fill="url(#bg-labconcept)"/>
  <rect width="640" height="480" fill="url(#aur-labconcept)"/>
  <g><line x1="0" y1="0" x2="0" y2="480" stroke="#8ca5c8" stroke-opacity="0.05" stroke-width="1"/><line x1="40" y1="0" x2="40" y2="480" stroke="#8ca5c8" stroke-opacity="0.05" stroke-width="1"/><line x1="80" y1="0" x2="80" y2="480" stroke="#8ca5c8" stroke-opacity="0.05" stroke-width="1"/><line x1="120" y1="0" x2="120" y2="480" stroke="#8ca5c8" stroke-opacity="0.05" stroke-width="1"/><line x1="160" y1="0" x2="160" y2="480" stroke="#8ca5c8" stroke-opacity="0.05" stroke-width="1"/><line x1="200" y1="0" x2="200" y2="480" stroke="#8ca5c8" stroke-opacity="0.05" stroke-width="1"/><line x1="240" y1="0" x2="240" y2="480" stroke="#8ca5c8" stroke-opacity="0.05" stroke-width="1"/><line x1="280" y1="0" x2="280" y2="480" stroke="#8ca5c8" stroke-opacity="0.05" stroke-width="1"/><line x1="320" y1="0" x2="320" y2="480" stroke="#8ca5c8" stroke-opacity="0.05" stroke-width="1"/><line x1="360" y1="0" x2="360" y2="480" stroke="#8ca5c8" stroke-opacity="0.05" stroke-width="1"/><line x1="400" y1="0" x2="400" y2="480" stroke="#8ca5c8" stroke-opacity="0.05" stroke-width="1"/><line x1="440" y1="0" x2="440" y2="480" stroke="#8ca5c8" stroke-opacity="0.05" stroke-width="1"/><line x1="480" y1="0" x2="480" y2="480" stroke="#8ca5c8" stroke-opacity="0.05" stroke-width="1"/><line x1="520" y1="0" x2="520" y2="480" stroke="#8ca5c8" stroke-opacity="0.05" stroke-width="1"/><line x1="560" y1="0" x2="560" y2="480" stroke="#8ca5c8" stroke-opacity="0.05" stroke-width="1"/><line x1="600" y1="0" x2="600" y2="480" stroke="#8ca5c8" stroke-opacity="0.05" stroke-width="1"/><line x1="640" y1="0" x2="640" y2="480" stroke="#8ca5c8" stroke-opacity="0.05" stroke-width="1"/><line x1="0" y1="0" x2="640" y2="0" stroke="#8ca5c8" stroke-opacity="0.05" stroke-width="1"/><line x1="0" y1="40" x2="640" y2="40" stroke="#8ca5c8" stroke-opacity="0.05" stroke-width="1"/><line x1="0" y1="80" x2="640" y2="80" stroke="#8ca5c8" stroke-opacity="0.05" stroke-width="1"/><line x1="0" y1="120" x2="640" y2="120" stroke="#8ca5c8" stroke-opacity="0.05" stroke-width="1"/><line x1="0" y1="160" x2="640" y2="160" stroke="#8ca5c8" stroke-opacity="0.05" stroke-width="1"/><line x1="0" y1="200" x2="640" y2="200" stroke="#8ca5c8" stroke-opacity="0.05" stroke-width="1"/><line x1="0" y1="240" x2="640" y2="240" stroke="#8ca5c8" stroke-opacity="0.05" stroke-width="1"/><line x1="0" y1="280" x2="640" y2="280" stroke="#8ca5c8" stroke-opacity="0.05" stroke-width="1"/><line x1="0" y1="320" x2="640" y2="320" stroke="#8ca5c8" stroke-opacity="0.05" stroke-width="1"/><line x1="0" y1="360" x2="640" y2="360" stroke="#8ca5c8" stroke-opacity="0.05" stroke-width="1"/><line x1="0" y1="400" x2="640" y2="400" stroke="#8ca5c8" stroke-opacity="0.05" stroke-width="1"/><line x1="0" y1="440" x2="640" y2="440" stroke="#8ca5c8" stroke-opacity="0.05" stroke-width="1"/><line x1="0" y1="480" x2="640" y2="480" stroke="#8ca5c8" stroke-opacity="0.05" stroke-width="1"/></g>
  <g filter="url(#soft-labconcept)" opacity="0.9"><path d="M -64 273.9632823285561
      C 215.84562333483382 116.46988211974264, 466.3640699876389 431.45668253736955, 704 210.9659222450307" fill="none" stroke="#8a7cf0" stroke-opacity="0.1748370764904742" stroke-width="3.3208929015139335" stroke-linecap="round"/><path d="M -64 316.49087396927433
      C 136.72457313740733 211.99573602471403, 444.3148622355226 420.98601191383466, 704 274.69281879145024" fill="none" stroke="#8a7cf0" stroke-opacity="0.25799243129277427" stroke-width="2.992298285754467" stroke-linecap="round"/><path d="M -64 184.9470025806099
      C 168.94305248021686 85.75835136458242, 492.63046592023 284.13565379663737, 704 145.2715420941989" fill="none" stroke="#8a7cf0" stroke-opacity="0.15544991639336803" stroke-width="3.033633839067452" stroke-linecap="round"/><path d="M -64 293.7152541889146
      C 198.51965798589393 187.93901095519288, 387.8983405539529 399.49149742263637, 704 251.40475689542592" fill="none" stroke="#8a7cf0" stroke-opacity="0.22861993512805084" stroke-width="2.566107966742969" stroke-linecap="round"/><path d="M -64 375.4460374767533
      C 201.8303166203737 238.86227213117806, 405.96061495457786 512.0298028223285, 704 320.8125313385232" fill="none" stroke="#8a7cf0" stroke-opacity="0.18392269445208895" stroke-width="1.727789845487054" stroke-linecap="round"/></g>
  <g><circle cx="398.2" cy="453.0" r="0.8" fill="#c7d2e0" fill-opacity="0.18"/><circle cx="190.8" cy="272.4" r="1.3" fill="#c7d2e0" fill-opacity="0.41"/><circle cx="425.0" cy="49.5" r="1.9" fill="#c7d2e0" fill-opacity="0.35"/><circle cx="34.8" cy="414.6" r="1.9" fill="#c7d2e0" fill-opacity="0.64"/><circle cx="340.5" cy="186.6" r="2.1" fill="#c7d2e0" fill-opacity="0.26"/><circle cx="97.9" cy="106.4" r="0.4" fill="#c7d2e0" fill-opacity="0.38"/><circle cx="167.5" cy="291.8" r="0.7" fill="#c7d2e0" fill-opacity="0.45"/><circle cx="135.4" cy="91.2" r="1.2" fill="#c7d2e0" fill-opacity="0.44"/><circle cx="94.2" cy="12.8" r="0.6" fill="#c7d2e0" fill-opacity="0.61"/><circle cx="474.2" cy="247.8" r="1.9" fill="#c7d2e0" fill-opacity="0.17"/><circle cx="16.0" cy="24.7" r="1.3" fill="#c7d2e0" fill-opacity="0.61"/><circle cx="453.2" cy="232.0" r="1.3" fill="#c7d2e0" fill-opacity="0.58"/><circle cx="396.2" cy="347.3" r="1.4" fill="#c7d2e0" fill-opacity="0.30"/><circle cx="105.6" cy="29.4" r="1.2" fill="#c7d2e0" fill-opacity="0.51"/><circle cx="607.7" cy="12.1" r="2.1" fill="#c7d2e0" fill-opacity="0.39"/><circle cx="599.3" cy="416.7" r="1.8" fill="#c7d2e0" fill-opacity="0.51"/><circle cx="514.0" cy="479.7" r="0.9" fill="#c7d2e0" fill-opacity="0.56"/><circle cx="238.6" cy="455.0" r="0.4" fill="#c7d2e0" fill-opacity="0.33"/><circle cx="170.4" cy="326.7" r="1.0" fill="#c7d2e0" fill-opacity="0.65"/><circle cx="105.3" cy="170.9" r="1.0" fill="#c7d2e0" fill-opacity="0.16"/><circle cx="205.6" cy="403.1" r="1.7" fill="#c7d2e0" fill-opacity="0.52"/><circle cx="140.0" cy="269.5" r="0.7" fill="#c7d2e0" fill-opacity="0.39"/><circle cx="322.6" cy="259.4" r="2.2" fill="#c7d2e0" fill-opacity="0.16"/><circle cx="383.6" cy="316.1" r="1.7" fill="#c7d2e0" fill-opacity="0.15"/><circle cx="400.0" cy="244.0" r="1.4" fill="#c7d2e0" fill-opacity="0.31"/><circle cx="337.8" cy="188.9" r="1.1" fill="#c7d2e0" fill-opacity="0.44"/><circle cx="353.4" cy="150.0" r="2.1" fill="#c7d2e0" fill-opacity="0.33"/><circle cx="287.1" cy="0.3" r="1.6" fill="#c7d2e0" fill-opacity="0.42"/><circle cx="36.5" cy="172.8" r="2.2" fill="#c7d2e0" fill-opacity="0.23"/><circle cx="100.0" cy="410.2" r="1.3" fill="#c7d2e0" fill-opacity="0.39"/></g>
  <rect width="640" height="480" filter="url(#grain-labconcept)" opacity="0.5"/>
  <g>
    <path d="M16 42 L16 16 L42 16" stroke="#8a7cf0" stroke-opacity="0.7" stroke-width="1.5" fill="none"/>
    <path d="M598 16 L624 16 L624 42" stroke="#8a7cf0" stroke-opacity="0.7" stroke-width="1.5" fill="none"/>
    <path d="M624 438 L624 464 L598 464" stroke="#8a7cf0" stroke-opacity="0.7" stroke-width="1.5" fill="none"/>
    <path d="M42 464 L16 464 L16 438" stroke="#8a7cf0" stroke-opacity="0.7" stroke-width="1.5" fill="none"/>
  </g>
  <g font-family="'JetBrains Mono', monospace">
    <rect x="20" y="436" width="120" height="24" rx="12"
      fill="#04060a" fill-opacity="0.55" stroke="#8a7cf0" stroke-opacity="0.4"/>
    <circle cx="36" cy="448" r="3" fill="#8a7cf0"/>
    <text x="48" y="452" fill="#c7d2e0" fill-opacity="0.85" font-size="11" letter-spacing="2">CONCEPT</text>
  </g>
</svg>