<svg xmlns="http://www.w3.org/2000/svg" width="640" height="480" viewBox="0 0 640 480" role="img" aria-label="lab-vfx placeholder">
  
  <defs>
    <radialGradient id="aur-labvfx" cx="32%" cy="8%" r="90%">
      <stop offset="0%" stop-color="#5fd7d2" stop-opacity="0.55"/>
      <stop offset="38%" stop-color="#8a7cf0" stop-opacity="0.18"/>
      <stop offset="100%" stop-color="#04060a" stop-opacity="0"/>
    </radialGradient>
    <linearGradient id="bg-labvfx" x1="0" y1="0" x2="1" y2="1">
      <stop offset="0%" stop-color="#0b1220"/>
      <stop offset="55%" stop-color="#070b12"/>
      <stop offset="100%" stop-color="#04060a"/>
    </linearGradient>
    <linearGradient id="ink-labvfx" x1="0" y1="0" x2="1" y2="1">
      <stop offset="0%" stop-color="#5fd7d2" stop-opacity="0.9"/>
      <stop offset="100%" stop-color="#8a7cf0" stop-opacity="0.5"/>
    </linearGradient>
    <filter id="soft-labvfx" x="-40%" y="-40%" width="180%" height="180%">
      <feGaussianBlur stdDeviation="22"/>
    </filter>
    <filter id="grain-labvfx">
      <feTurbulence type="fractalNoise" baseFrequency="0.85" numOctaves="2" stitchTiles="stitch"/>
      <feColorMatrix type="saturate" values="0"/>
      <feComponentTransfer><feFuncA type="linear" slope="0.06"/></feComponentTransfer>
    </filter>
  </defs>
  <rect width="640" height="480" fill="url(#bg-labvfx)"/>
  <rect width="640" height="480" fill="url(#aur-labvfx)"/>
  <g><line x1="0" y1="0" x2="0" y2="480" stroke="#8ca5c8" stroke-opacity="0.05" stroke-width="1"/><line x1="40" y1="0" x2="40" y2="480" stroke="#8ca5c8" stroke-opacity="0.05" stroke-width="1"/><line x1="80" y1="0" x2="80" y2="480" stroke="#8ca5c8" stroke-opacity="0.05" stroke-width="1"/><line x1="120" y1="0" x2="120" y2="480" stroke="#8ca5c8" stroke-opacity="0.05" stroke-width="1"/><line x1="160" y1="0" x2="160" y2="480" stroke="#8ca5c8" stroke-opacity="0.05" stroke-width="1"/><line x1="200" y1="0" x2="200" y2="480" stroke="#8ca5c8" stroke-opacity="0.05" stroke-width="1"/><line x1="240" y1="0" x2="240" y2="480" stroke="#8ca5c8" stroke-opacity="0.05" stroke-width="1"/><line x1="280" y1="0" x2="280" y2="480" stroke="#8ca5c8" stroke-opacity="0.05" stroke-width="1"/><line x1="320" y1="0" x2="320" y2="480" stroke="#8ca5c8" stroke-opacity="0.05" stroke-width="1"/><line x1="360" y1="0" x2="360" y2="480" stroke="#8ca5c8" stroke-opacity="0.05" stroke-width="1"/><line x1="400" y1="0" x2="400" y2="480" stroke="#8ca5c8" stroke-opacity="0.05" stroke-width="1"/><line x1="440" y1="0" x2="440" y2="480" stroke="#8ca5c8" stroke-opacity="0.05" stroke-width="1"/><line x1="480" y1="0" x2="480" y2="480" stroke="#8ca5c8" stroke-opacity="0.05" stroke-width="1"/><line x1="520" y1="0" x2="520" y2="480" stroke="#8ca5c8" stroke-opacity="0.05" stroke-width="1"/><line x1="560" y1="0" x2="560" y2="480" stroke="#8ca5c8" stroke-opacity="0.05" stroke-width="1"/><line x1="600" y1="0" x2="600" y2="480" stroke="#8ca5c8" stroke-opacity="0.05" stroke-width="1"/><line x1="640" y1="0" x2="640" y2="480" stroke="#8ca5c8" stroke-opacity="0.05" stroke-width="1"/><line x1="0" y1="0" x2="640" y2="0" stroke="#8ca5c8" stroke-opacity="0.05" stroke-width="1"/><line x1="0" y1="40" x2="640" y2="40" stroke="#8ca5c8" stroke-opacity="0.05" stroke-width="1"/><line x1="0" y1="80" x2="640" y2="80" stroke="#8ca5c8" stroke-opacity="0.05" stroke-width="1"/><line x1="0" y1="120" x2="640" y2="120" stroke="#8ca5c8" stroke-opacity="0.05" stroke-width="1"/><line x1="0" y1="160" x2="640" y2="160" stroke="#8ca5c8" stroke-opacity="0.05" stroke-width="1"/><line x1="0" y1="200" x2="640" y2="200" stroke="#8ca5c8" stroke-opacity="0.05" stroke-width="1"/><line x1="0" y1="240" x2="640" y2="240" stroke="#8ca5c8" stroke-opacity="0.05" stroke-width="1"/><line x1="0" y1="280" x2="640" y2="280" stroke="#8ca5c8" stroke-opacity="0.05" stroke-width="1"/><line x1="0" y1="320" x2="640" y2="320" stroke="#8ca5c8" stroke-opacity="0.05" stroke-width="1"/><line x1="0" y1="360" x2="640" y2="360" stroke="#8ca5c8" stroke-opacity="0.05" stroke-width="1"/><line x1="0" y1="400" x2="640" y2="400" stroke="#8ca5c8" stroke-opacity="0.05" stroke-width="1"/><line x1="0" y1="440" x2="640" y2="440" stroke="#8ca5c8" stroke-opacity="0.05" stroke-width="1"/><line x1="0" y1="480" x2="640" y2="480" stroke="#8ca5c8" stroke-opacity="0.05" stroke-width="1"/></g>
  
      <circle cx="396.8" cy="201.6" r="134.4" fill="url(#ink-labvfx)" fill-opacity="0.18" filter="url(#soft-labvfx)"/>
      <circle cx="396.8" cy="201.6" r="134.4" fill="none" stroke="url(#ink-labvfx)" stroke-opacity="0.6" stroke-width="1.5"/>
      <circle cx="396.8" cy="201.6" r="83.328" fill="none" stroke="#c7d2e0" stroke-opacity="0.18" stroke-width="1"/>
      <g filter="url(#soft-labvfx)" opacity="0.9"><path d="M -64 327.45921553845034
      C 131.59047117912922 261.5571442348783, 395.25474906229755 393.36128684202237, 704 301.09838701702154" fill="none" stroke="#5fd7d2" stroke-opacity="0.27335501115614436" stroke-width="1.326161117368881" stroke-linecap="round"/><path d="M -64 253.78102265246702
      C 164.99370274809047 138.74011331599672, 397.2691287429233 368.8219319889373, 704 207.7646589178789" fill="none" stroke="#8a7cf0" stroke-opacity="0.17555081487995358" stroke-width="1.8012319833043104" stroke-linecap="round"/><path d="M -64 380.19732284457365
      C 133.68880108131302 293.01271331576, 509.83436837741976 467.3819323733873, 704 345.3234790330482" fill="none" stroke="#5fd7d2" stroke-opacity="0.19986956262957994" stroke-width="1.3410879569922314" stroke-linecap="round"/></g>
  <g><circle cx="516.3" cy="386.0" r="1.3" fill="#c7d2e0" fill-opacity="0.34"/><circle cx="299.3" cy="451.3" r="2.2" fill="#c7d2e0" fill-opacity="0.59"/><circle cx="229.6" cy="270.4" r="2.1" fill="#c7d2e0" fill-opacity="0.56"/><circle cx="513.1" cy="429.5" r="2.0" fill="#c7d2e0" fill-opacity="0.51"/><circle cx="235.1" cy="298.0" r="0.7" fill="#c7d2e0" fill-opacity="0.41"/><circle cx="597.8" cy="236.6" r="2.1" fill="#c7d2e0" fill-opacity="0.34"/><circle cx="547.8" cy="413.7" r="1.5" fill="#c7d2e0" fill-opacity="0.62"/><circle cx="565.1" cy="228.1" r="2.1" fill="#c7d2e0" fill-opacity="0.40"/><circle cx="461.6" cy="55.4" r="2.1" fill="#c7d2e0" fill-opacity="0.55"/><circle cx="241.2" cy="435.1" r="2.0" fill="#c7d2e0" fill-opacity="0.25"/><circle cx="430.1" cy="176.6" r="1.1" fill="#c7d2e0" fill-opacity="0.65"/><circle cx="367.7" cy="261.3" r="0.6" fill="#c7d2e0" fill-opacity="0.35"/><circle cx="148.4" cy="378.2" r="1.1" fill="#c7d2e0" fill-opacity="0.15"/><circle cx="543.5" cy="10.4" r="1.4" fill="#c7d2e0" fill-opacity="0.44"/><circle cx="514.2" cy="270.7" r="1.0" fill="#c7d2e0" fill-opacity="0.35"/><circle cx="405.3" cy="403.0" r="1.6" fill="#c7d2e0" fill-opacity="0.52"/><circle cx="508.9" cy="267.0" r="0.4" fill="#c7d2e0" fill-opacity="0.56"/><circle cx="209.4" cy="84.4" r="2.0" fill="#c7d2e0" fill-opacity="0.52"/><circle cx="518.9" cy="363.6" r="1.7" fill="#c7d2e0" fill-opacity="0.20"/><circle cx="172.8" cy="240.9" r="1.6" fill="#c7d2e0" fill-opacity="0.63"/><circle cx="576.9" cy="273.8" r="1.8" fill="#c7d2e0" fill-opacity="0.62"/><circle cx="494.3" cy="7.7" r="0.7" fill="#c7d2e0" fill-opacity="0.26"/><circle cx="563.3" cy="429.1" r="1.7" fill="#c7d2e0" fill-opacity="0.51"/><circle cx="135.9" cy="426.0" r="1.1" fill="#c7d2e0" fill-opacity="0.16"/><circle cx="447.1" cy="11.7" r="1.9" fill="#c7d2e0" fill-opacity="0.44"/><circle cx="124.1" cy="149.7" r="1.9" fill="#c7d2e0" fill-opacity="0.25"/><circle cx="567.3" cy="176.9" r="1.7" fill="#c7d2e0" fill-opacity="0.17"/><circle cx="490.9" cy="183.2" r="2.2" fill="#c7d2e0" fill-opacity="0.49"/><circle cx="34.5" cy="464.8" r="2.0" fill="#c7d2e0" fill-opacity="0.47"/><circle cx="455.4" cy="368.2" r="2.2" fill="#c7d2e0" fill-opacity="0.54"/></g>
  <rect width="640" height="480" filter="url(#grain-labvfx)" opacity="0.5"/>
  <g>
    <path d="M16 42 L16 16 L42 16" stroke="#5fd7d2" stroke-opacity="0.7" stroke-width="1.5" fill="none"/>
    <path d="M598 16 L624 16 L624 42" stroke="#5fd7d2" stroke-opacity="0.7" stroke-width="1.5" fill="none"/>
    <path d="M624 438 L624 464 L598 464" stroke="#5fd7d2" stroke-opacity="0.7" stroke-width="1.5" fill="none"/>
    <path d="M42 464 L16 464 L16 438" stroke="#5fd7d2" stroke-opacity="0.7" stroke-width="1.5" fill="none"/>
  </g>
  <g font-family="'JetBrains Mono', monospace">
    <rect x="20" y="436" width="120" height="24" rx="12"
      fill="#04060a" fill-opacity="0.55" stroke="#5fd7d2" stroke-opacity="0.4"/>
    <circle cx="36" cy="448" r="3" fill="#5fd7d2"/>
    <text x="48" y="452" fill="#c7d2e0" fill-opacity="0.85" font-size="11" letter-spacing="2">VFX</text>
  </g>
</svg>