<svg xmlns="http://www.w3.org/2000/svg" width="640" height="480" viewBox="0 0 640 480" role="img" aria-label="lab-ui placeholder">
  
  <defs>
    <radialGradient id="aur-labui" cx="32%" cy="8%" r="90%">
      <stop offset="0%" stop-color="#8a7cf0" stop-opacity="0.55"/>
      <stop offset="38%" stop-color="#8a7cf0" stop-opacity="0.18"/>
      <stop offset="100%" stop-color="#04060a" stop-opacity="0"/>
    </radialGradient>
    <linearGradient id="bg-labui" x1="0" y1="0" x2="1" y2="1">
      <stop offset="0%" stop-color="#0b1220"/>
      <stop offset="55%" stop-color="#070b12"/>
      <stop offset="100%" stop-color="#04060a"/>
    </linearGradient>
    <linearGradient id="ink-labui" x1="0" y1="0" x2="1" y2="1">
      <stop offset="0%" stop-color="#8a7cf0" stop-opacity="0.9"/>
      <stop offset="100%" stop-color="#8a7cf0" stop-opacity="0.5"/>
    </linearGradient>
    <filter id="soft-labui" x="-40%" y="-40%" width="180%" height="180%">
      <feGaussianBlur stdDeviation="22"/>
    </filter>
    <filter id="grain-labui">
      <feTurbulence type="fractalNoise" baseFrequency="0.85" numOctaves="2" stitchTiles="stitch"/>
      <feColorMatrix type="saturate" values="0"/>
      <feComponentTransfer><feFuncA type="linear" slope="0.06"/></feComponentTransfer>
    </filter>
  </defs>
  <rect width="640" height="480" fill="url(#bg-labui)"/>
  <rect width="640" height="480" fill="url(#aur-labui)"/>
  <g><line x1="0" y1="0" x2="0" y2="480" stroke="#8ca5c8" stroke-opacity="0.05" stroke-width="1"/><line x1="40" y1="0" x2="40" y2="480" stroke="#8ca5c8" stroke-opacity="0.05" stroke-width="1"/><line x1="80" y1="0" x2="80" y2="480" stroke="#8ca5c8" stroke-opacity="0.05" stroke-width="1"/><line x1="120" y1="0" x2="120" y2="480" stroke="#8ca5c8" stroke-opacity="0.05" stroke-width="1"/><line x1="160" y1="0" x2="160" y2="480" stroke="#8ca5c8" stroke-opacity="0.05" stroke-width="1"/><line x1="200" y1="0" x2="200" y2="480" stroke="#8ca5c8" stroke-opacity="0.05" stroke-width="1"/><line x1="240" y1="0" x2="240" y2="480" stroke="#8ca5c8" stroke-opacity="0.05" stroke-width="1"/><line x1="280" y1="0" x2="280" y2="480" stroke="#8ca5c8" stroke-opacity="0.05" stroke-width="1"/><line x1="320" y1="0" x2="320" y2="480" stroke="#8ca5c8" stroke-opacity="0.05" stroke-width="1"/><line x1="360" y1="0" x2="360" y2="480" stroke="#8ca5c8" stroke-opacity="0.05" stroke-width="1"/><line x1="400" y1="0" x2="400" y2="480" stroke="#8ca5c8" stroke-opacity="0.05" stroke-width="1"/><line x1="440" y1="0" x2="440" y2="480" stroke="#8ca5c8" stroke-opacity="0.05" stroke-width="1"/><line x1="480" y1="0" x2="480" y2="480" stroke="#8ca5c8" stroke-opacity="0.05" stroke-width="1"/><line x1="520" y1="0" x2="520" y2="480" stroke="#8ca5c8" stroke-opacity="0.05" stroke-width="1"/><line x1="560" y1="0" x2="560" y2="480" stroke="#8ca5c8" stroke-opacity="0.05" stroke-width="1"/><line x1="600" y1="0" x2="600" y2="480" stroke="#8ca5c8" stroke-opacity="0.05" stroke-width="1"/><line x1="640" y1="0" x2="640" y2="480" stroke="#8ca5c8" stroke-opacity="0.05" stroke-width="1"/><line x1="0" y1="0" x2="640" y2="0" stroke="#8ca5c8" stroke-opacity="0.05" stroke-width="1"/><line x1="0" y1="40" x2="640" y2="40" stroke="#8ca5c8" stroke-opacity="0.05" stroke-width="1"/><line x1="0" y1="80" x2="640" y2="80" stroke="#8ca5c8" stroke-opacity="0.05" stroke-width="1"/><line x1="0" y1="120" x2="640" y2="120" stroke="#8ca5c8" stroke-opacity="0.05" stroke-width="1"/><line x1="0" y1="160" x2="640" y2="160" stroke="#8ca5c8" stroke-opacity="0.05" stroke-width="1"/><line x1="0" y1="200" x2="640" y2="200" stroke="#8ca5c8" stroke-opacity="0.05" stroke-width="1"/><line x1="0" y1="240" x2="640" y2="240" stroke="#8ca5c8" stroke-opacity="0.05" stroke-width="1"/><line x1="0" y1="280" x2="640" y2="280" stroke="#8ca5c8" stroke-opacity="0.05" stroke-width="1"/><line x1="0" y1="320" x2="640" y2="320" stroke="#8ca5c8" stroke-opacity="0.05" stroke-width="1"/><line x1="0" y1="360" x2="640" y2="360" stroke="#8ca5c8" stroke-opacity="0.05" stroke-width="1"/><line x1="0" y1="400" x2="640" y2="400" stroke="#8ca5c8" stroke-opacity="0.05" stroke-width="1"/><line x1="0" y1="440" x2="640" y2="440" stroke="#8ca5c8" stroke-opacity="0.05" stroke-width="1"/><line x1="0" y1="480" x2="640" y2="480" stroke="#8ca5c8" stroke-opacity="0.05" stroke-width="1"/></g>
  <g filter="url(#soft-labui)" opacity="0.9"><path d="M -64 256.7382376866271
      C 255.75418731564523 192.1676789559814, 468.8087634343674 321.3087964172728, 704 230.9100141943688" fill="none" stroke="#8a7cf0" stroke-opacity="0.18563174692579354" stroke-width="1.0213641837289007" stroke-linecap="round"/><path d="M -64 314.33477354662836
      C 144.98902261652728 252.02653096151224, 411.0808914664855 376.6430161317445, 704 289.4114765125819" fill="none" stroke="#8a7cf0" stroke-opacity="0.14617002029581228" stroke-width="3.157646071295637" stroke-linecap="round"/></g><g><rect x="102.4" y="144" width="335.5729274487991" height="14" rx="7" fill="#04060a" fill-opacity="0.6" stroke="#8a7cf0" stroke-opacity="0.5"/><rect x="102.4" y="144" width="241.80085179599007" height="14" rx="7" fill="#8a7cf0" fill-opacity="0.4"/><rect x="102.4" y="178" width="394.5055986518287" height="14" rx="7" fill="#04060a" fill-opacity="0.6" stroke="#8a7cf0" stroke-opacity="0.5"/><rect x="102.4" y="178" width="336.5171479025843" height="14" rx="7" fill="#8a7cf0" fill-opacity="0.4"/><rect x="102.4" y="212" width="364.58638022388016" height="14" rx="7" fill="#04060a" fill-opacity="0.6" stroke="#8a7cf0" stroke-opacity="0.5"/><rect x="102.4" y="212" width="250.2902609427728" height="14" rx="7" fill="#8a7cf0" fill-opacity="0.4"/><rect x="102.4" y="246" width="390.4937161073308" height="14" rx="7" fill="#04060a" fill-opacity="0.6" stroke="#8a7cf0" stroke-opacity="0.5"/><rect x="102.4" y="246" width="224.3752751959158" height="14" rx="7" fill="#8a7cf0" fill-opacity="0.4"/></g>
  <g><circle cx="359.9" cy="30.6" r="1.4" fill="#c7d2e0" fill-opacity="0.18"/><circle cx="217.6" cy="304.8" r="1.3" fill="#c7d2e0" fill-opacity="0.21"/><circle cx="466.3" cy="404.9" r="2.0" fill="#c7d2e0" fill-opacity="0.50"/><circle cx="40.3" cy="11.6" r="2.0" fill="#c7d2e0" fill-opacity="0.50"/><circle cx="592.4" cy="249.3" r="2.2" fill="#c7d2e0" fill-opacity="0.29"/><circle cx="84.9" cy="162.3" r="1.4" fill="#c7d2e0" fill-opacity="0.46"/><circle cx="591.4" cy="466.4" r="2.1" fill="#c7d2e0" fill-opacity="0.45"/><circle cx="318.4" cy="89.8" r="1.7" fill="#c7d2e0" fill-opacity="0.41"/><circle cx="179.0" cy="423.7" r="0.6" fill="#c7d2e0" fill-opacity="0.43"/><circle cx="365.7" cy="158.9" r="1.4" fill="#c7d2e0" fill-opacity="0.22"/><circle cx="294.9" cy="185.5" r="1.1" fill="#c7d2e0" fill-opacity="0.24"/><circle cx="91.3" cy="234.0" r="0.6" fill="#c7d2e0" fill-opacity="0.48"/><circle cx="23.5" cy="255.3" r="0.8" fill="#c7d2e0" fill-opacity="0.50"/><circle cx="220.0" cy="455.9" r="0.4" fill="#c7d2e0" fill-opacity="0.26"/><circle cx="595.7" cy="267.8" r="0.9" fill="#c7d2e0" fill-opacity="0.29"/><circle cx="439.0" cy="8.8" r="0.8" fill="#c7d2e0" fill-opacity="0.63"/><circle cx="470.0" cy="471.4" r="1.7" fill="#c7d2e0" fill-opacity="0.52"/><circle cx="98.4" cy="118.2" r="0.9" fill="#c7d2e0" fill-opacity="0.28"/><circle cx="53.4" cy="240.2" r="1.2" fill="#c7d2e0" fill-opacity="0.52"/><circle cx="232.8" cy="237.2" r="1.9" fill="#c7d2e0" fill-opacity="0.31"/><circle cx="63.3" cy="335.8" r="2.2" fill="#c7d2e0" fill-opacity="0.31"/><circle cx="502.2" cy="384.3" r="0.5" fill="#c7d2e0" fill-opacity="0.16"/><circle cx="568.2" cy="280.4" r="1.7" fill="#c7d2e0" fill-opacity="0.46"/><circle cx="14.0" cy="30.6" r="1.6" fill="#c7d2e0" fill-opacity="0.22"/><circle cx="69.0" cy="438.1" r="1.9" fill="#c7d2e0" fill-opacity="0.64"/><circle cx="103.3" cy="256.5" r="0.5" fill="#c7d2e0" fill-opacity="0.58"/><circle cx="380.8" cy="167.5" r="1.7" fill="#c7d2e0" fill-opacity="0.38"/><circle cx="114.8" cy="59.3" r="1.2" fill="#c7d2e0" fill-opacity="0.42"/><circle cx="33.2" cy="203.9" r="2.1" fill="#c7d2e0" fill-opacity="0.38"/><circle cx="264.1" cy="250.4" r="1.1" fill="#c7d2e0" fill-opacity="0.64"/></g>
  <rect width="640" height="480" filter="url(#grain-labui)" opacity="0.5"/>
  <g>
    <path d="M16 42 L16 16 L42 16" stroke="#8a7cf0" stroke-opacity="0.7" stroke-width="1.5" fill="none"/>
    <path d="M598 16 L624 16 L624 42" stroke="#8a7cf0" stroke-opacity="0.7" stroke-width="1.5" fill="none"/>
    <path d="M624 438 L624 464 L598 464" stroke="#8a7cf0" stroke-opacity="0.7" stroke-width="1.5" fill="none"/>
    <path d="M42 464 L16 464 L16 438" stroke="#8a7cf0" stroke-opacity="0.7" stroke-width="1.5" fill="none"/>
  </g>
  <g font-family="'JetBrains Mono', monospace">
    <rect x="20" y="436" width="120" height="24" rx="12"
      fill="#04060a" fill-opacity="0.55" stroke="#8a7cf0" stroke-opacity="0.4"/>
    <circle cx="36" cy="448" r="3" fill="#8a7cf0"/>
    <text x="48" y="452" fill="#c7d2e0" fill-opacity="0.85" font-size="11" letter-spacing="2">GAME UI</text>
  </g>
</svg>