<svg xmlns="http://www.w3.org/2000/svg" width="640" height="480" viewBox="0 0 640 480" role="img" aria-label="lab-pixel placeholder">
  
  <defs>
    <radialGradient id="aur-labpixel" cx="32%" cy="8%" r="90%">
      <stop offset="0%" stop-color="#d8b367" stop-opacity="0.55"/>
      <stop offset="38%" stop-color="#8a7cf0" stop-opacity="0.18"/>
      <stop offset="100%" stop-color="#04060a" stop-opacity="0"/>
    </radialGradient>
    <linearGradient id="bg-labpixel" x1="0" y1="0" x2="1" y2="1">
      <stop offset="0%" stop-color="#0b1220"/>
      <stop offset="55%" stop-color="#070b12"/>
      <stop offset="100%" stop-color="#04060a"/>
    </linearGradient>
    <linearGradient id="ink-labpixel" x1="0" y1="0" x2="1" y2="1">
      <stop offset="0%" stop-color="#d8b367" stop-opacity="0.9"/>
      <stop offset="100%" stop-color="#8a7cf0" stop-opacity="0.5"/>
    </linearGradient>
    <filter id="soft-labpixel" x="-40%" y="-40%" width="180%" height="180%">
      <feGaussianBlur stdDeviation="22"/>
    </filter>
    <filter id="grain-labpixel">
      <feTurbulence type="fractalNoise" baseFrequency="0.85" numOctaves="2" stitchTiles="stitch"/>
      <feColorMatrix type="saturate" values="0"/>
      <feComponentTransfer><feFuncA type="linear" slope="0.06"/></feComponentTransfer>
    </filter>
  </defs>
  <rect width="640" height="480" fill="url(#bg-labpixel)"/>
  <rect width="640" height="480" fill="url(#aur-labpixel)"/>
  <g><line x1="0" y1="0" x2="0" y2="480" stroke="#8ca5c8" stroke-opacity="0.05" stroke-width="1"/><line x1="40" y1="0" x2="40" y2="480" stroke="#8ca5c8" stroke-opacity="0.05" stroke-width="1"/><line x1="80" y1="0" x2="80" y2="480" stroke="#8ca5c8" stroke-opacity="0.05" stroke-width="1"/><line x1="120" y1="0" x2="120" y2="480" stroke="#8ca5c8" stroke-opacity="0.05" stroke-width="1"/><line x1="160" y1="0" x2="160" y2="480" stroke="#8ca5c8" stroke-opacity="0.05" stroke-width="1"/><line x1="200" y1="0" x2="200" y2="480" stroke="#8ca5c8" stroke-opacity="0.05" stroke-width="1"/><line x1="240" y1="0" x2="240" y2="480" stroke="#8ca5c8" stroke-opacity="0.05" stroke-width="1"/><line x1="280" y1="0" x2="280" y2="480" stroke="#8ca5c8" stroke-opacity="0.05" stroke-width="1"/><line x1="320" y1="0" x2="320" y2="480" stroke="#8ca5c8" stroke-opacity="0.05" stroke-width="1"/><line x1="360" y1="0" x2="360" y2="480" stroke="#8ca5c8" stroke-opacity="0.05" stroke-width="1"/><line x1="400" y1="0" x2="400" y2="480" stroke="#8ca5c8" stroke-opacity="0.05" stroke-width="1"/><line x1="440" y1="0" x2="440" y2="480" stroke="#8ca5c8" stroke-opacity="0.05" stroke-width="1"/><line x1="480" y1="0" x2="480" y2="480" stroke="#8ca5c8" stroke-opacity="0.05" stroke-width="1"/><line x1="520" y1="0" x2="520" y2="480" stroke="#8ca5c8" stroke-opacity="0.05" stroke-width="1"/><line x1="560" y1="0" x2="560" y2="480" stroke="#8ca5c8" stroke-opacity="0.05" stroke-width="1"/><line x1="600" y1="0" x2="600" y2="480" stroke="#8ca5c8" stroke-opacity="0.05" stroke-width="1"/><line x1="640" y1="0" x2="640" y2="480" stroke="#8ca5c8" stroke-opacity="0.05" stroke-width="1"/><line x1="0" y1="0" x2="640" y2="0" stroke="#8ca5c8" stroke-opacity="0.05" stroke-width="1"/><line x1="0" y1="40" x2="640" y2="40" stroke="#8ca5c8" stroke-opacity="0.05" stroke-width="1"/><line x1="0" y1="80" x2="640" y2="80" stroke="#8ca5c8" stroke-opacity="0.05" stroke-width="1"/><line x1="0" y1="120" x2="640" y2="120" stroke="#8ca5c8" stroke-opacity="0.05" stroke-width="1"/><line x1="0" y1="160" x2="640" y2="160" stroke="#8ca5c8" stroke-opacity="0.05" stroke-width="1"/><line x1="0" y1="200" x2="640" y2="200" stroke="#8ca5c8" stroke-opacity="0.05" stroke-width="1"/><line x1="0" y1="240" x2="640" y2="240" stroke="#8ca5c8" stroke-opacity="0.05" stroke-width="1"/><line x1="0" y1="280" x2="640" y2="280" stroke="#8ca5c8" stroke-opacity="0.05" stroke-width="1"/><line x1="0" y1="320" x2="640" y2="320" stroke="#8ca5c8" stroke-opacity="0.05" stroke-width="1"/><line x1="0" y1="360" x2="640" y2="360" stroke="#8ca5c8" stroke-opacity="0.05" stroke-width="1"/><line x1="0" y1="400" x2="640" y2="400" stroke="#8ca5c8" stroke-opacity="0.05" stroke-width="1"/><line x1="0" y1="440" x2="640" y2="440" stroke="#8ca5c8" stroke-opacity="0.05" stroke-width="1"/><line x1="0" y1="480" x2="640" y2="480" stroke="#8ca5c8" stroke-opacity="0.05" stroke-width="1"/></g>
  <g><rect x="265" y="152" width="20" height="20" rx="2" fill="#d8b367" fill-opacity="0.47"/><rect x="287" y="152" width="20" height="20" rx="2" fill="#c7d2e0" fill-opacity="0.28"/><rect x="309" y="152" width="20" height="20" rx="2" fill="#c7d2e0" fill-opacity="0.48"/><rect x="375" y="152" width="20" height="20" rx="2" fill="#d8b367" fill-opacity="0.22"/><rect x="243" y="174" width="20" height="20" rx="2" fill="#c7d2e0" fill-opacity="0.54"/><rect x="243" y="196" width="20" height="20" rx="2" fill="#d8b367" fill-opacity="0.23"/><rect x="287" y="196" width="20" height="20" rx="2" fill="#c7d2e0" fill-opacity="0.47"/><rect x="243" y="218" width="20" height="20" rx="2" fill="#d8b367" fill-opacity="0.32"/><rect x="287" y="218" width="20" height="20" rx="2" fill="#d8b367" fill-opacity="0.24"/><rect x="331" y="218" width="20" height="20" rx="2" fill="#c7d2e0" fill-opacity="0.40"/><rect x="287" y="240" width="20" height="20" rx="2" fill="#c7d2e0" fill-opacity="0.77"/><rect x="331" y="240" width="20" height="20" rx="2" fill="#d8b367" fill-opacity="0.71"/><rect x="353" y="240" width="20" height="20" rx="2" fill="#c7d2e0" fill-opacity="0.22"/><rect x="265" y="262" width="20" height="20" rx="2" fill="#c7d2e0" fill-opacity="0.32"/><rect x="331" y="262" width="20" height="20" rx="2" fill="#c7d2e0" fill-opacity="0.57"/><rect x="353" y="262" width="20" height="20" rx="2" fill="#d8b367" fill-opacity="0.78"/><rect x="375" y="262" width="20" height="20" rx="2" fill="#d8b367" fill-opacity="0.24"/><rect x="265" y="284" width="20" height="20" rx="2" fill="#c7d2e0" fill-opacity="0.71"/><rect x="287" y="284" width="20" height="20" rx="2" fill="#d8b367" fill-opacity="0.59"/><rect x="331" y="284" width="20" height="20" rx="2" fill="#d8b367" fill-opacity="0.28"/><rect x="375" y="284" width="20" height="20" rx="2" fill="#d8b367" fill-opacity="0.41"/><rect x="353" y="306" width="20" height="20" rx="2" fill="#c7d2e0" fill-opacity="0.72"/><rect x="375" y="306" width="20" height="20" rx="2" fill="#d8b367" fill-opacity="0.74"/></g>
  <g><circle cx="18.9" cy="112.4" r="1.1" fill="#c7d2e0" fill-opacity="0.45"/><circle cx="272.6" cy="184.8" r="1.9" fill="#c7d2e0" fill-opacity="0.39"/><circle cx="151.9" cy="330.5" r="0.8" fill="#c7d2e0" fill-opacity="0.21"/><circle cx="314.9" cy="236.9" r="2.1" fill="#c7d2e0" fill-opacity="0.52"/><circle cx="518.1" cy="299.7" r="1.7" fill="#c7d2e0" fill-opacity="0.17"/><circle cx="567.6" cy="260.1" r="1.8" fill="#c7d2e0" fill-opacity="0.35"/><circle cx="120.7" cy="315.1" r="1.2" fill="#c7d2e0" fill-opacity="0.26"/><circle cx="627.7" cy="299.7" r="1.8" fill="#c7d2e0" fill-opacity="0.63"/><circle cx="65.3" cy="336.7" r="1.9" fill="#c7d2e0" fill-opacity="0.27"/><circle cx="69.9" cy="233.4" r="0.6" fill="#c7d2e0" fill-opacity="0.42"/><circle cx="441.6" cy="301.4" r="0.9" fill="#c7d2e0" fill-opacity="0.22"/><circle cx="308.8" cy="157.8" r="2.0" fill="#c7d2e0" fill-opacity="0.22"/><circle cx="444.0" cy="345.0" r="1.1" fill="#c7d2e0" fill-opacity="0.58"/><circle cx="99.4" cy="206.2" r="1.7" fill="#c7d2e0" fill-opacity="0.28"/><circle cx="453.6" cy="454.9" r="1.0" fill="#c7d2e0" fill-opacity="0.46"/><circle cx="38.7" cy="275.5" r="1.8" fill="#c7d2e0" fill-opacity="0.61"/><circle cx="318.5" cy="32.0" r="0.9" fill="#c7d2e0" fill-opacity="0.58"/><circle cx="66.8" cy="143.4" r="1.1" fill="#c7d2e0" fill-opacity="0.59"/><circle cx="236.2" cy="242.6" r="1.7" fill="#c7d2e0" fill-opacity="0.32"/><circle cx="208.2" cy="455.8" r="1.3" fill="#c7d2e0" fill-opacity="0.23"/><circle cx="393.7" cy="41.2" r="0.7" fill="#c7d2e0" fill-opacity="0.50"/><circle cx="73.3" cy="263.6" r="0.7" fill="#c7d2e0" fill-opacity="0.16"/><circle cx="9.6" cy="262.2" r="1.5" fill="#c7d2e0" fill-opacity="0.26"/><circle cx="319.0" cy="230.2" r="1.0" fill="#c7d2e0" fill-opacity="0.19"/><circle cx="254.9" cy="422.3" r="0.8" fill="#c7d2e0" fill-opacity="0.57"/><circle cx="310.8" cy="468.8" r="0.7" fill="#c7d2e0" fill-opacity="0.59"/><circle cx="174.6" cy="232.7" r="0.5" fill="#c7d2e0" fill-opacity="0.51"/><circle cx="303.3" cy="209.0" r="0.7" fill="#c7d2e0" fill-opacity="0.49"/><circle cx="328.4" cy="61.1" r="1.6" fill="#c7d2e0" fill-opacity="0.59"/><circle cx="461.8" cy="254.7" r="1.8" fill="#c7d2e0" fill-opacity="0.44"/></g>
  <rect width="640" height="480" filter="url(#grain-labpixel)" opacity="0.5"/>
  <g>
    <path d="M16 42 L16 16 L42 16" stroke="#d8b367" stroke-opacity="0.7" stroke-width="1.5" fill="none"/>
    <path d="M598 16 L624 16 L624 42" stroke="#d8b367" stroke-opacity="0.7" stroke-width="1.5" fill="none"/>
    <path d="M624 438 L624 464 L598 464" stroke="#d8b367" stroke-opacity="0.7" stroke-width="1.5" fill="none"/>
    <path d="M42 464 L16 464 L16 438" stroke="#d8b367" stroke-opacity="0.7" stroke-width="1.5" fill="none"/>
  </g>
  <g font-family="'JetBrains Mono', monospace">
    <rect x="20" y="436" width="120" height="24" rx="12"
      fill="#04060a" fill-opacity="0.55" stroke="#d8b367" stroke-opacity="0.4"/>
    <circle cx="36" cy="448" r="3" fill="#d8b367"/>
    <text x="48" y="452" fill="#c7d2e0" fill-opacity="0.85" font-size="11" letter-spacing="2">PIXEL</text>
  </g>
</svg>