<svg xmlns="http://www.w3.org/2000/svg" width="560" height="360" viewBox="0 0 560 360" role="img" aria-label="log-prompt placeholder">
  
  <defs>
    <radialGradient id="aur-logprompt" cx="32%" cy="8%" r="90%">
      <stop offset="0%" stop-color="#8a7cf0" stop-opacity="0.55"/>
      <stop offset="38%" stop-color="#8a7cf0" stop-opacity="0.18"/>
      <stop offset="100%" stop-color="#04060a" stop-opacity="0"/>
    </radialGradient>
    <linearGradient id="bg-logprompt" x1="0" y1="0" x2="1" y2="1">
      <stop offset="0%" stop-color="#0b1220"/>
      <stop offset="55%" stop-color="#070b12"/>
      <stop offset="100%" stop-color="#04060a"/>
    </linearGradient>
    <linearGradient id="ink-logprompt" x1="0" y1="0" x2="1" y2="1">
      <stop offset="0%" stop-color="#8a7cf0" stop-opacity="0.9"/>
      <stop offset="100%" stop-color="#8a7cf0" stop-opacity="0.5"/>
    </linearGradient>
    <filter id="soft-logprompt" x="-40%" y="-40%" width="180%" height="180%">
      <feGaussianBlur stdDeviation="22"/>
    </filter>
    <filter id="grain-logprompt">
      <feTurbulence type="fractalNoise" baseFrequency="0.85" numOctaves="2" stitchTiles="stitch"/>
      <feColorMatrix type="saturate" values="0"/>
      <feComponentTransfer><feFuncA type="linear" slope="0.06"/></feComponentTransfer>
    </filter>
  </defs>
  <rect width="560" height="360" fill="url(#bg-logprompt)"/>
  <rect width="560" height="360" fill="url(#aur-logprompt)"/>
  <g><line x1="0" y1="0" x2="0" y2="360" stroke="#8ca5c8" stroke-opacity="0.05" stroke-width="1"/><line x1="40" y1="0" x2="40" y2="360" stroke="#8ca5c8" stroke-opacity="0.05" stroke-width="1"/><line x1="80" y1="0" x2="80" y2="360" stroke="#8ca5c8" stroke-opacity="0.05" stroke-width="1"/><line x1="120" y1="0" x2="120" y2="360" stroke="#8ca5c8" stroke-opacity="0.05" stroke-width="1"/><line x1="160" y1="0" x2="160" y2="360" stroke="#8ca5c8" stroke-opacity="0.05" stroke-width="1"/><line x1="200" y1="0" x2="200" y2="360" stroke="#8ca5c8" stroke-opacity="0.05" stroke-width="1"/><line x1="240" y1="0" x2="240" y2="360" stroke="#8ca5c8" stroke-opacity="0.05" stroke-width="1"/><line x1="280" y1="0" x2="280" y2="360" stroke="#8ca5c8" stroke-opacity="0.05" stroke-width="1"/><line x1="320" y1="0" x2="320" y2="360" stroke="#8ca5c8" stroke-opacity="0.05" stroke-width="1"/><line x1="360" y1="0" x2="360" y2="360" stroke="#8ca5c8" stroke-opacity="0.05" stroke-width="1"/><line x1="400" y1="0" x2="400" y2="360" stroke="#8ca5c8" stroke-opacity="0.05" stroke-width="1"/><line x1="440" y1="0" x2="440" y2="360" stroke="#8ca5c8" stroke-opacity="0.05" stroke-width="1"/><line x1="480" y1="0" x2="480" y2="360" stroke="#8ca5c8" stroke-opacity="0.05" stroke-width="1"/><line x1="520" y1="0" x2="520" y2="360" stroke="#8ca5c8" stroke-opacity="0.05" stroke-width="1"/><line x1="560" y1="0" x2="560" y2="360" stroke="#8ca5c8" stroke-opacity="0.05" stroke-width="1"/><line x1="0" y1="0" x2="560" y2="0" stroke="#8ca5c8" stroke-opacity="0.05" stroke-width="1"/><line x1="0" y1="40" x2="560" y2="40" stroke="#8ca5c8" stroke-opacity="0.05" stroke-width="1"/><line x1="0" y1="80" x2="560" y2="80" stroke="#8ca5c8" stroke-opacity="0.05" stroke-width="1"/><line x1="0" y1="120" x2="560" y2="120" stroke="#8ca5c8" stroke-opacity="0.05" stroke-width="1"/><line x1="0" y1="160" x2="560" y2="160" stroke="#8ca5c8" stroke-opacity="0.05" stroke-width="1"/><line x1="0" y1="200" x2="560" y2="200" stroke="#8ca5c8" stroke-opacity="0.05" stroke-width="1"/><line x1="0" y1="240" x2="560" y2="240" stroke="#8ca5c8" stroke-opacity="0.05" stroke-width="1"/><line x1="0" y1="280" x2="560" y2="280" stroke="#8ca5c8" stroke-opacity="0.05" stroke-width="1"/><line x1="0" y1="320" x2="560" y2="320" stroke="#8ca5c8" stroke-opacity="0.05" stroke-width="1"/><line x1="0" y1="360" x2="560" y2="360" stroke="#8ca5c8" stroke-opacity="0.05" stroke-width="1"/></g>
  <g filter="url(#soft-logprompt)" opacity="0.9"><path d="M -56 222.78312550084271
      C 123.84043922178458 160.1840622943323, 429.53066515865055 285.3821887073531, 616 197.74350021823855" fill="none" stroke="#8a7cf0" stroke-opacity="0.20146453471888426" stroke-width="1.274855022010127" stroke-linecap="round"/><path d="M -56 223.72954392426868
      C 199.51032321329936 143.1176557278069, 427.1523152354994 304.3414321207305, 616 191.48478864568395" fill="none" stroke="#8a7cf0" stroke-opacity="0.2389887558945894" stroke-width="2.1554640625499806" stroke-linecap="round"/><path d="M -56 229.45077370606614
      C 190.08008228942754 183.30543151034635, 355.3821622103877 275.59611590178594, 616 210.99263682777823" fill="none" stroke="#8a7cf0" stroke-opacity="0.1600061936769649" stroke-width="2.5425431484222747" stroke-linecap="round"/><path d="M -56 270.8354535882444
      C 186.69201278562937 153.45966857444952, 364.9926656254084 388.2112386020392, 616 223.88513958272642" fill="none" stroke="#8a7cf0" stroke-opacity="0.16489108421953652" stroke-width="1.7538252096515672" stroke-linecap="round"/><path d="M -56 247.11390280889208
      C 194.41629416551822 165.78211410143, 360.4535315168215 328.44569151635415, 616 214.58118732590725" fill="none" stroke="#8a7cf0" stroke-opacity="0.25742544713835824" stroke-width="2.135246568996284" stroke-linecap="round"/></g>
  <g><circle cx="393.3" cy="87.4" r="1.5" fill="#c7d2e0" fill-opacity="0.27"/><circle cx="249.6" cy="264.2" r="1.2" fill="#c7d2e0" fill-opacity="0.43"/><circle cx="211.2" cy="160.5" r="1.3" fill="#c7d2e0" fill-opacity="0.29"/><circle cx="265.7" cy="182.6" r="0.8" fill="#c7d2e0" fill-opacity="0.30"/><circle cx="183.4" cy="150.2" r="0.8" fill="#c7d2e0" fill-opacity="0.50"/><circle cx="150.6" cy="162.0" r="1.6" fill="#c7d2e0" fill-opacity="0.18"/><circle cx="57.2" cy="122.9" r="1.0" fill="#c7d2e0" fill-opacity="0.48"/><circle cx="213.6" cy="233.8" r="0.9" fill="#c7d2e0" fill-opacity="0.17"/><circle cx="250.3" cy="153.7" r="1.7" fill="#c7d2e0" fill-opacity="0.61"/><circle cx="373.8" cy="36.2" r="1.8" fill="#c7d2e0" fill-opacity="0.31"/><circle cx="333.3" cy="248.7" r="2.1" fill="#c7d2e0" fill-opacity="0.22"/><circle cx="550.5" cy="277.7" r="0.8" fill="#c7d2e0" fill-opacity="0.59"/><circle cx="488.0" cy="288.9" r="0.5" fill="#c7d2e0" fill-opacity="0.60"/><circle cx="108.5" cy="262.7" r="1.4" fill="#c7d2e0" fill-opacity="0.60"/><circle cx="340.0" cy="357.6" r="1.3" fill="#c7d2e0" fill-opacity="0.17"/><circle cx="278.9" cy="119.6" r="0.5" fill="#c7d2e0" fill-opacity="0.62"/><circle cx="207.0" cy="10.0" r="1.9" fill="#c7d2e0" fill-opacity="0.57"/><circle cx="34.1" cy="171.6" r="1.6" fill="#c7d2e0" fill-opacity="0.34"/><circle cx="281.5" cy="84.4" r="2.1" fill="#c7d2e0" fill-opacity="0.46"/><circle cx="538.8" cy="329.9" r="2.0" fill="#c7d2e0" fill-opacity="0.48"/><circle cx="549.1" cy="217.4" r="1.3" fill="#c7d2e0" fill-opacity="0.55"/><circle cx="255.1" cy="229.5" r="0.6" fill="#c7d2e0" fill-opacity="0.61"/><circle cx="321.1" cy="340.6" r="1.9" fill="#c7d2e0" fill-opacity="0.54"/><circle cx="303.2" cy="107.0" r="1.9" fill="#c7d2e0" fill-opacity="0.31"/><circle cx="182.8" cy="40.0" r="2.1" fill="#c7d2e0" fill-opacity="0.23"/><circle cx="476.5" cy="262.0" r="1.2" fill="#c7d2e0" fill-opacity="0.56"/><circle cx="196.1" cy="97.9" r="0.7" fill="#c7d2e0" fill-opacity="0.44"/><circle cx="472.6" cy="179.7" r="1.6" fill="#c7d2e0" fill-opacity="0.46"/><circle cx="517.9" cy="97.6" r="1.3" fill="#c7d2e0" fill-opacity="0.27"/><circle cx="178.3" cy="196.6" r="1.0" fill="#c7d2e0" fill-opacity="0.19"/></g>
  <rect width="560" height="360" filter="url(#grain-logprompt)" opacity="0.5"/>
  <g>
    <path d="M16 42 L16 16 L42 16" stroke="#8a7cf0" stroke-opacity="0.7" stroke-width="1.5" fill="none"/>
    <path d="M518 16 L544 16 L544 42" stroke="#8a7cf0" stroke-opacity="0.7" stroke-width="1.5" fill="none"/>
    <path d="M544 318 L544 344 L518 344" stroke="#8a7cf0" stroke-opacity="0.7" stroke-width="1.5" fill="none"/>
    <path d="M42 344 L16 344 L16 318" stroke="#8a7cf0" stroke-opacity="0.7" stroke-width="1.5" fill="none"/>
  </g>
  <g font-family="'JetBrains Mono', monospace">
    <rect x="20" y="316" width="120" height="24" rx="12"
      fill="#04060a" fill-opacity="0.55" stroke="#8a7cf0" stroke-opacity="0.4"/>
    <circle cx="36" cy="328" r="3" fill="#8a7cf0"/>
    <text x="48" y="332" fill="#c7d2e0" fill-opacity="0.85" font-size="11" letter-spacing="2">PROMPT</text>
  </g>
</svg>