<svg xmlns="http://www.w3.org/2000/svg" width="560" height="360" viewBox="0 0 560 360" role="img" aria-label="log-workflow placeholder">
  
  <defs>
    <radialGradient id="aur-logworkflow" cx="32%" cy="8%" r="90%">
      <stop offset="0%" stop-color="#5fd7d2" stop-opacity="0.55"/>
      <stop offset="38%" stop-color="#8a7cf0" stop-opacity="0.18"/>
      <stop offset="100%" stop-color="#04060a" stop-opacity="0"/>
    </radialGradient>
    <linearGradient id="bg-logworkflow" x1="0" y1="0" x2="1" y2="1">
      <stop offset="0%" stop-color="#0b1220"/>
      <stop offset="55%" stop-color="#070b12"/>
      <stop offset="100%" stop-color="#04060a"/>
    </linearGradient>
    <linearGradient id="ink-logworkflow" x1="0" y1="0" x2="1" y2="1">
      <stop offset="0%" stop-color="#5fd7d2" stop-opacity="0.9"/>
      <stop offset="100%" stop-color="#8a7cf0" stop-opacity="0.5"/>
    </linearGradient>
    <filter id="soft-logworkflow" x="-40%" y="-40%" width="180%" height="180%">
      <feGaussianBlur stdDeviation="22"/>
    </filter>
    <filter id="grain-logworkflow">
      <feTurbulence type="fractalNoise" baseFrequency="0.85" numOctaves="2" stitchTiles="stitch"/>
      <feColorMatrix type="saturate" values="0"/>
      <feComponentTransfer><feFuncA type="linear" slope="0.06"/></feComponentTransfer>
    </filter>
  </defs>
  <rect width="560" height="360" fill="url(#bg-logworkflow)"/>
  <rect width="560" height="360" fill="url(#aur-logworkflow)"/>
  <g><line x1="0" y1="0" x2="0" y2="360" stroke="#8ca5c8" stroke-opacity="0.05" stroke-width="1"/><line x1="40" y1="0" x2="40" y2="360" stroke="#8ca5c8" stroke-opacity="0.05" stroke-width="1"/><line x1="80" y1="0" x2="80" y2="360" stroke="#8ca5c8" stroke-opacity="0.05" stroke-width="1"/><line x1="120" y1="0" x2="120" y2="360" stroke="#8ca5c8" stroke-opacity="0.05" stroke-width="1"/><line x1="160" y1="0" x2="160" y2="360" stroke="#8ca5c8" stroke-opacity="0.05" stroke-width="1"/><line x1="200" y1="0" x2="200" y2="360" stroke="#8ca5c8" stroke-opacity="0.05" stroke-width="1"/><line x1="240" y1="0" x2="240" y2="360" stroke="#8ca5c8" stroke-opacity="0.05" stroke-width="1"/><line x1="280" y1="0" x2="280" y2="360" stroke="#8ca5c8" stroke-opacity="0.05" stroke-width="1"/><line x1="320" y1="0" x2="320" y2="360" stroke="#8ca5c8" stroke-opacity="0.05" stroke-width="1"/><line x1="360" y1="0" x2="360" y2="360" stroke="#8ca5c8" stroke-opacity="0.05" stroke-width="1"/><line x1="400" y1="0" x2="400" y2="360" stroke="#8ca5c8" stroke-opacity="0.05" stroke-width="1"/><line x1="440" y1="0" x2="440" y2="360" stroke="#8ca5c8" stroke-opacity="0.05" stroke-width="1"/><line x1="480" y1="0" x2="480" y2="360" stroke="#8ca5c8" stroke-opacity="0.05" stroke-width="1"/><line x1="520" y1="0" x2="520" y2="360" stroke="#8ca5c8" stroke-opacity="0.05" stroke-width="1"/><line x1="560" y1="0" x2="560" y2="360" stroke="#8ca5c8" stroke-opacity="0.05" stroke-width="1"/><line x1="0" y1="0" x2="560" y2="0" stroke="#8ca5c8" stroke-opacity="0.05" stroke-width="1"/><line x1="0" y1="40" x2="560" y2="40" stroke="#8ca5c8" stroke-opacity="0.05" stroke-width="1"/><line x1="0" y1="80" x2="560" y2="80" stroke="#8ca5c8" stroke-opacity="0.05" stroke-width="1"/><line x1="0" y1="120" x2="560" y2="120" stroke="#8ca5c8" stroke-opacity="0.05" stroke-width="1"/><line x1="0" y1="160" x2="560" y2="160" stroke="#8ca5c8" stroke-opacity="0.05" stroke-width="1"/><line x1="0" y1="200" x2="560" y2="200" stroke="#8ca5c8" stroke-opacity="0.05" stroke-width="1"/><line x1="0" y1="240" x2="560" y2="240" stroke="#8ca5c8" stroke-opacity="0.05" stroke-width="1"/><line x1="0" y1="280" x2="560" y2="280" stroke="#8ca5c8" stroke-opacity="0.05" stroke-width="1"/><line x1="0" y1="320" x2="560" y2="320" stroke="#8ca5c8" stroke-opacity="0.05" stroke-width="1"/><line x1="0" y1="360" x2="560" y2="360" stroke="#8ca5c8" stroke-opacity="0.05" stroke-width="1"/></g>
  <g filter="url(#soft-logworkflow)" opacity="0.9"><path d="M -56 276.81183844358003
      C 218.07145890828025 173.36974923828842, 365.53780986683853 380.25392764887164, 616 235.43500276146338" fill="none" stroke="#5fd7d2" stroke-opacity="0.12098671074979629" stroke-width="1.3727878213796736" stroke-linecap="round"/><path d="M -56 129.34975221225756
      C 129.69230716342395 76.15091205168306, 370.0139544871668 182.54859237283205, 616 108.07021614802775" fill="none" stroke="#8a7cf0" stroke-opacity="0.12509043622880486" stroke-width="3.05755390312" stroke-linecap="round"/></g><g><rect x="89.60000000000001" y="108" width="381.0051442955167" height="14" rx="7" fill="#04060a" fill-opacity="0.6" stroke="#5fd7d2" stroke-opacity="0.5"/><rect x="89.60000000000001" y="108" width="204.72750486690464" height="14" rx="7" fill="#5fd7d2" fill-opacity="0.4"/><rect x="89.60000000000001" y="142" width="333.7654888345314" height="14" rx="7" fill="#04060a" fill-opacity="0.6" stroke="#5fd7d2" stroke-opacity="0.5"/><rect x="89.60000000000001" y="142" width="204.83421819182365" height="14" rx="7" fill="#5fd7d2" fill-opacity="0.4"/><rect x="89.60000000000001" y="176" width="351.81262220996723" height="14" rx="7" fill="#04060a" fill-opacity="0.6" stroke="#5fd7d2" stroke-opacity="0.5"/><rect x="89.60000000000001" y="176" width="156.23499228468725" height="14" rx="7" fill="#5fd7d2" fill-opacity="0.4"/><rect x="89.60000000000001" y="210" width="231.3398837222112" height="14" rx="7" fill="#04060a" fill-opacity="0.6" stroke="#5fd7d2" stroke-opacity="0.5"/><rect x="89.60000000000001" y="210" width="144.26152232604858" height="14" rx="7" fill="#5fd7d2" fill-opacity="0.4"/></g>
  <g><circle cx="533.4" cy="273.0" r="1.3" fill="#c7d2e0" fill-opacity="0.49"/><circle cx="272.4" cy="83.2" r="0.4" fill="#c7d2e0" fill-opacity="0.25"/><circle cx="422.1" cy="336.8" r="1.9" fill="#c7d2e0" fill-opacity="0.43"/><circle cx="123.9" cy="43.4" r="1.6" fill="#c7d2e0" fill-opacity="0.31"/><circle cx="442.3" cy="55.7" r="1.8" fill="#c7d2e0" fill-opacity="0.61"/><circle cx="70.9" cy="245.9" r="1.1" fill="#c7d2e0" fill-opacity="0.62"/><circle cx="269.5" cy="212.3" r="0.8" fill="#c7d2e0" fill-opacity="0.28"/><circle cx="352.6" cy="36.2" r="0.8" fill="#c7d2e0" fill-opacity="0.40"/><circle cx="466.2" cy="216.2" r="0.8" fill="#c7d2e0" fill-opacity="0.29"/><circle cx="533.9" cy="358.4" r="0.6" fill="#c7d2e0" fill-opacity="0.50"/><circle cx="68.3" cy="250.7" r="1.5" fill="#c7d2e0" fill-opacity="0.45"/><circle cx="329.2" cy="198.7" r="1.5" fill="#c7d2e0" fill-opacity="0.48"/><circle cx="365.7" cy="112.2" r="1.7" fill="#c7d2e0" fill-opacity="0.52"/><circle cx="460.8" cy="160.1" r="1.8" fill="#c7d2e0" fill-opacity="0.31"/><circle cx="318.8" cy="141.3" r="1.4" fill="#c7d2e0" fill-opacity="0.43"/><circle cx="192.3" cy="210.7" r="2.2" fill="#c7d2e0" fill-opacity="0.25"/><circle cx="409.3" cy="287.5" r="1.2" fill="#c7d2e0" fill-opacity="0.61"/><circle cx="497.7" cy="244.2" r="0.8" fill="#c7d2e0" fill-opacity="0.40"/><circle cx="366.7" cy="185.3" r="0.8" fill="#c7d2e0" fill-opacity="0.42"/><circle cx="544.4" cy="212.3" r="1.5" fill="#c7d2e0" fill-opacity="0.38"/><circle cx="288.9" cy="244.0" r="1.2" fill="#c7d2e0" fill-opacity="0.37"/><circle cx="372.5" cy="190.5" r="0.6" fill="#c7d2e0" fill-opacity="0.22"/><circle cx="118.5" cy="148.6" r="0.5" fill="#c7d2e0" fill-opacity="0.40"/><circle cx="247.6" cy="16.0" r="1.0" fill="#c7d2e0" fill-opacity="0.27"/><circle cx="274.1" cy="174.6" r="0.8" fill="#c7d2e0" fill-opacity="0.30"/><circle cx="50.0" cy="297.9" r="1.9" fill="#c7d2e0" fill-opacity="0.47"/><circle cx="76.0" cy="274.1" r="0.5" fill="#c7d2e0" fill-opacity="0.36"/><circle cx="378.0" cy="119.9" r="1.0" fill="#c7d2e0" fill-opacity="0.60"/><circle cx="127.8" cy="175.3" r="1.0" fill="#c7d2e0" fill-opacity="0.65"/><circle cx="326.7" cy="76.3" r="1.2" fill="#c7d2e0" fill-opacity="0.27"/></g>
  <rect width="560" height="360" filter="url(#grain-logworkflow)" opacity="0.5"/>
  <g>
    <path d="M16 42 L16 16 L42 16" stroke="#5fd7d2" stroke-opacity="0.7" stroke-width="1.5" fill="none"/>
    <path d="M518 16 L544 16 L544 42" stroke="#5fd7d2" stroke-opacity="0.7" stroke-width="1.5" fill="none"/>
    <path d="M544 318 L544 344 L518 344" stroke="#5fd7d2" stroke-opacity="0.7" stroke-width="1.5" fill="none"/>
    <path d="M42 344 L16 344 L16 318" stroke="#5fd7d2" stroke-opacity="0.7" stroke-width="1.5" fill="none"/>
  </g>
  <g font-family="'JetBrains Mono', monospace">
    <rect x="20" y="316" width="120" height="24" rx="12"
      fill="#04060a" fill-opacity="0.55" stroke="#5fd7d2" stroke-opacity="0.4"/>
    <circle cx="36" cy="328" r="3" fill="#5fd7d2"/>
    <text x="48" y="332" fill="#c7d2e0" fill-opacity="0.85" font-size="11" letter-spacing="2">WORKFLOW</text>
  </g>
</svg>