<svg xmlns="http://www.w3.org/2000/svg" width="560" height="360" viewBox="0 0 560 360" role="img" aria-label="log-validation placeholder">
  
  <defs>
    <radialGradient id="aur-logvalidation" cx="32%" cy="8%" r="90%">
      <stop offset="0%" stop-color="#c7d2e0" stop-opacity="0.55"/>
      <stop offset="38%" stop-color="#8a7cf0" stop-opacity="0.18"/>
      <stop offset="100%" stop-color="#04060a" stop-opacity="0"/>
    </radialGradient>
    <linearGradient id="bg-logvalidation" x1="0" y1="0" x2="1" y2="1">
      <stop offset="0%" stop-color="#0b1220"/>
      <stop offset="55%" stop-color="#070b12"/>
      <stop offset="100%" stop-color="#04060a"/>
    </linearGradient>
    <linearGradient id="ink-logvalidation" x1="0" y1="0" x2="1" y2="1">
      <stop offset="0%" stop-color="#c7d2e0" stop-opacity="0.9"/>
      <stop offset="100%" stop-color="#8a7cf0" stop-opacity="0.5"/>
    </linearGradient>
    <filter id="soft-logvalidation" x="-40%" y="-40%" width="180%" height="180%">
      <feGaussianBlur stdDeviation="22"/>
    </filter>
    <filter id="grain-logvalidation">
      <feTurbulence type="fractalNoise" baseFrequency="0.85" numOctaves="2" stitchTiles="stitch"/>
      <feColorMatrix type="saturate" values="0"/>
      <feComponentTransfer><feFuncA type="linear" slope="0.06"/></feComponentTransfer>
    </filter>
  </defs>
  <rect width="560" height="360" fill="url(#bg-logvalidation)"/>
  <rect width="560" height="360" fill="url(#aur-logvalidation)"/>
  <g><line x1="0" y1="0" x2="0" y2="360" stroke="#8ca5c8" stroke-opacity="0.05" stroke-width="1"/><line x1="40" y1="0" x2="40" y2="360" stroke="#8ca5c8" stroke-opacity="0.05" stroke-width="1"/><line x1="80" y1="0" x2="80" y2="360" stroke="#8ca5c8" stroke-opacity="0.05" stroke-width="1"/><line x1="120" y1="0" x2="120" y2="360" stroke="#8ca5c8" stroke-opacity="0.05" stroke-width="1"/><line x1="160" y1="0" x2="160" y2="360" stroke="#8ca5c8" stroke-opacity="0.05" stroke-width="1"/><line x1="200" y1="0" x2="200" y2="360" stroke="#8ca5c8" stroke-opacity="0.05" stroke-width="1"/><line x1="240" y1="0" x2="240" y2="360" stroke="#8ca5c8" stroke-opacity="0.05" stroke-width="1"/><line x1="280" y1="0" x2="280" y2="360" stroke="#8ca5c8" stroke-opacity="0.05" stroke-width="1"/><line x1="320" y1="0" x2="320" y2="360" stroke="#8ca5c8" stroke-opacity="0.05" stroke-width="1"/><line x1="360" y1="0" x2="360" y2="360" stroke="#8ca5c8" stroke-opacity="0.05" stroke-width="1"/><line x1="400" y1="0" x2="400" y2="360" stroke="#8ca5c8" stroke-opacity="0.05" stroke-width="1"/><line x1="440" y1="0" x2="440" y2="360" stroke="#8ca5c8" stroke-opacity="0.05" stroke-width="1"/><line x1="480" y1="0" x2="480" y2="360" stroke="#8ca5c8" stroke-opacity="0.05" stroke-width="1"/><line x1="520" y1="0" x2="520" y2="360" stroke="#8ca5c8" stroke-opacity="0.05" stroke-width="1"/><line x1="560" y1="0" x2="560" y2="360" stroke="#8ca5c8" stroke-opacity="0.05" stroke-width="1"/><line x1="0" y1="0" x2="560" y2="0" stroke="#8ca5c8" stroke-opacity="0.05" stroke-width="1"/><line x1="0" y1="40" x2="560" y2="40" stroke="#8ca5c8" stroke-opacity="0.05" stroke-width="1"/><line x1="0" y1="80" x2="560" y2="80" stroke="#8ca5c8" stroke-opacity="0.05" stroke-width="1"/><line x1="0" y1="120" x2="560" y2="120" stroke="#8ca5c8" stroke-opacity="0.05" stroke-width="1"/><line x1="0" y1="160" x2="560" y2="160" stroke="#8ca5c8" stroke-opacity="0.05" stroke-width="1"/><line x1="0" y1="200" x2="560" y2="200" stroke="#8ca5c8" stroke-opacity="0.05" stroke-width="1"/><line x1="0" y1="240" x2="560" y2="240" stroke="#8ca5c8" stroke-opacity="0.05" stroke-width="1"/><line x1="0" y1="280" x2="560" y2="280" stroke="#8ca5c8" stroke-opacity="0.05" stroke-width="1"/><line x1="0" y1="320" x2="560" y2="320" stroke="#8ca5c8" stroke-opacity="0.05" stroke-width="1"/><line x1="0" y1="360" x2="560" y2="360" stroke="#8ca5c8" stroke-opacity="0.05" stroke-width="1"/></g>
  <g filter="url(#soft-logvalidation)" opacity="0.9"><path d="M -56 223.33633196524727
      C 119.22146816719824 154.14095429287784, 388.73781991115254 292.5317096376167, 616 195.65818089629948" fill="none" stroke="#c7d2e0" stroke-opacity="0.22792399904409516" stroke-width="2.845145403650856" stroke-linecap="round"/><path d="M -56 277.5211946846734
      C 216.7846501043031 222.0402308025491, 440.11386849547597 333.0021585667977, 616 255.32880913182368" fill="none" stroke="#8a7cf0" stroke-opacity="0.21421046866434867" stroke-width="3.1290720460305623" stroke-linecap="round"/></g><g><rect x="89.60000000000001" y="108" width="325.54906350317157" height="14" rx="7" fill="#04060a" fill-opacity="0.6" stroke="#c7d2e0" stroke-opacity="0.5"/><rect x="89.60000000000001" y="108" width="285.7964278903834" height="14" rx="7" fill="#c7d2e0" fill-opacity="0.4"/><rect x="89.60000000000001" y="142" width="360.06550740452144" height="14" rx="7" fill="#04060a" fill-opacity="0.6" stroke="#c7d2e0" stroke-opacity="0.5"/><rect x="89.60000000000001" y="142" width="265.7257419457238" height="14" rx="7" fill="#c7d2e0" fill-opacity="0.4"/><rect x="89.60000000000001" y="176" width="265.2326631697902" height="14" rx="7" fill="#04060a" fill-opacity="0.6" stroke="#c7d2e0" stroke-opacity="0.5"/><rect x="89.60000000000001" y="176" width="224.1482929192008" height="14" rx="7" fill="#c7d2e0" fill-opacity="0.4"/><rect x="89.60000000000001" y="210" width="384.99915739730915" height="14" rx="7" fill="#04060a" fill-opacity="0.6" stroke="#c7d2e0" stroke-opacity="0.5"/><rect x="89.60000000000001" y="210" width="246.73827721079803" height="14" rx="7" fill="#c7d2e0" fill-opacity="0.4"/></g>
  <g><circle cx="394.7" cy="117.3" r="1.5" fill="#c7d2e0" fill-opacity="0.59"/><circle cx="56.0" cy="323.8" r="1.6" fill="#c7d2e0" fill-opacity="0.27"/><circle cx="297.6" cy="202.1" r="2.0" fill="#c7d2e0" fill-opacity="0.21"/><circle cx="550.8" cy="262.6" r="0.8" fill="#c7d2e0" fill-opacity="0.48"/><circle cx="402.0" cy="128.2" r="2.0" fill="#c7d2e0" fill-opacity="0.20"/><circle cx="196.5" cy="10.0" r="1.2" fill="#c7d2e0" fill-opacity="0.19"/><circle cx="508.8" cy="97.2" r="1.8" fill="#c7d2e0" fill-opacity="0.55"/><circle cx="209.6" cy="274.9" r="2.1" fill="#c7d2e0" fill-opacity="0.37"/><circle cx="277.6" cy="153.6" r="0.5" fill="#c7d2e0" fill-opacity="0.37"/><circle cx="484.6" cy="201.9" r="0.9" fill="#c7d2e0" fill-opacity="0.31"/><circle cx="303.9" cy="188.0" r="1.3" fill="#c7d2e0" fill-opacity="0.28"/><circle cx="408.8" cy="220.3" r="1.9" fill="#c7d2e0" fill-opacity="0.53"/><circle cx="151.8" cy="53.0" r="1.4" fill="#c7d2e0" fill-opacity="0.59"/><circle cx="552.0" cy="326.9" r="2.1" fill="#c7d2e0" fill-opacity="0.60"/><circle cx="60.7" cy="151.9" r="1.6" fill="#c7d2e0" fill-opacity="0.46"/><circle cx="191.8" cy="280.7" r="1.7" fill="#c7d2e0" fill-opacity="0.33"/><circle cx="168.4" cy="339.8" r="0.7" fill="#c7d2e0" fill-opacity="0.44"/><circle cx="192.7" cy="269.8" r="0.9" fill="#c7d2e0" fill-opacity="0.41"/><circle cx="48.0" cy="16.9" r="0.7" fill="#c7d2e0" fill-opacity="0.41"/><circle cx="41.9" cy="251.6" r="2.0" fill="#c7d2e0" fill-opacity="0.44"/><circle cx="240.1" cy="134.6" r="1.6" fill="#c7d2e0" fill-opacity="0.45"/><circle cx="238.2" cy="125.0" r="0.8" fill="#c7d2e0" fill-opacity="0.34"/><circle cx="180.7" cy="273.9" r="0.6" fill="#c7d2e0" fill-opacity="0.62"/><circle cx="517.4" cy="14.9" r="1.2" fill="#c7d2e0" fill-opacity="0.24"/><circle cx="363.1" cy="156.7" r="0.7" fill="#c7d2e0" fill-opacity="0.57"/><circle cx="72.2" cy="309.6" r="1.8" fill="#c7d2e0" fill-opacity="0.16"/><circle cx="335.3" cy="189.2" r="2.1" fill="#c7d2e0" fill-opacity="0.17"/><circle cx="326.6" cy="10.8" r="2.0" fill="#c7d2e0" fill-opacity="0.24"/><circle cx="372.3" cy="317.7" r="0.5" fill="#c7d2e0" fill-opacity="0.49"/><circle cx="186.2" cy="235.5" r="0.8" fill="#c7d2e0" fill-opacity="0.22"/></g>
  <rect width="560" height="360" filter="url(#grain-logvalidation)" opacity="0.5"/>
  <g>
    <path d="M16 42 L16 16 L42 16" stroke="#c7d2e0" stroke-opacity="0.7" stroke-width="1.5" fill="none"/>
    <path d="M518 16 L544 16 L544 42" stroke="#c7d2e0" stroke-opacity="0.7" stroke-width="1.5" fill="none"/>
    <path d="M544 318 L544 344 L518 344" stroke="#c7d2e0" stroke-opacity="0.7" stroke-width="1.5" fill="none"/>
    <path d="M42 344 L16 344 L16 318" stroke="#c7d2e0" stroke-opacity="0.7" stroke-width="1.5" fill="none"/>
  </g>
  <g font-family="'JetBrains Mono', monospace">
    <rect x="20" y="316" width="120" height="24" rx="12"
      fill="#04060a" fill-opacity="0.55" stroke="#c7d2e0" stroke-opacity="0.4"/>
    <circle cx="36" cy="328" r="3" fill="#c7d2e0"/>
    <text x="48" y="332" fill="#c7d2e0" fill-opacity="0.85" font-size="11" letter-spacing="2">DESIGN</text>
  </g>
</svg>