<svg xmlns="http://www.w3.org/2000/svg" width="560" height="360" viewBox="0 0 560 360" role="img" aria-label="log-pixel placeholder">
  
  <defs>
    <radialGradient id="aur-logpixel" cx="32%" cy="8%" r="90%">
      <stop offset="0%" stop-color="#d8b367" stop-opacity="0.55"/>
      <stop offset="38%" stop-color="#8a7cf0" stop-opacity="0.18"/>
      <stop offset="100%" stop-color="#04060a" stop-opacity="0"/>
    </radialGradient>
    <linearGradient id="bg-logpixel" x1="0" y1="0" x2="1" y2="1">
      <stop offset="0%" stop-color="#0b1220"/>
      <stop offset="55%" stop-color="#070b12"/>
      <stop offset="100%" stop-color="#04060a"/>
    </linearGradient>
    <linearGradient id="ink-logpixel" x1="0" y1="0" x2="1" y2="1">
      <stop offset="0%" stop-color="#d8b367" stop-opacity="0.9"/>
      <stop offset="100%" stop-color="#8a7cf0" stop-opacity="0.5"/>
    </linearGradient>
    <filter id="soft-logpixel" x="-40%" y="-40%" width="180%" height="180%">
      <feGaussianBlur stdDeviation="22"/>
    </filter>
    <filter id="grain-logpixel">
      <feTurbulence type="fractalNoise" baseFrequency="0.85" numOctaves="2" stitchTiles="stitch"/>
      <feColorMatrix type="saturate" values="0"/>
      <feComponentTransfer><feFuncA type="linear" slope="0.06"/></feComponentTransfer>
    </filter>
  </defs>
  <rect width="560" height="360" fill="url(#bg-logpixel)"/>
  <rect width="560" height="360" fill="url(#aur-logpixel)"/>
  <g><line x1="0" y1="0" x2="0" y2="360" stroke="#8ca5c8" stroke-opacity="0.05" stroke-width="1"/><line x1="40" y1="0" x2="40" y2="360" stroke="#8ca5c8" stroke-opacity="0.05" stroke-width="1"/><line x1="80" y1="0" x2="80" y2="360" stroke="#8ca5c8" stroke-opacity="0.05" stroke-width="1"/><line x1="120" y1="0" x2="120" y2="360" stroke="#8ca5c8" stroke-opacity="0.05" stroke-width="1"/><line x1="160" y1="0" x2="160" y2="360" stroke="#8ca5c8" stroke-opacity="0.05" stroke-width="1"/><line x1="200" y1="0" x2="200" y2="360" stroke="#8ca5c8" stroke-opacity="0.05" stroke-width="1"/><line x1="240" y1="0" x2="240" y2="360" stroke="#8ca5c8" stroke-opacity="0.05" stroke-width="1"/><line x1="280" y1="0" x2="280" y2="360" stroke="#8ca5c8" stroke-opacity="0.05" stroke-width="1"/><line x1="320" y1="0" x2="320" y2="360" stroke="#8ca5c8" stroke-opacity="0.05" stroke-width="1"/><line x1="360" y1="0" x2="360" y2="360" stroke="#8ca5c8" stroke-opacity="0.05" stroke-width="1"/><line x1="400" y1="0" x2="400" y2="360" stroke="#8ca5c8" stroke-opacity="0.05" stroke-width="1"/><line x1="440" y1="0" x2="440" y2="360" stroke="#8ca5c8" stroke-opacity="0.05" stroke-width="1"/><line x1="480" y1="0" x2="480" y2="360" stroke="#8ca5c8" stroke-opacity="0.05" stroke-width="1"/><line x1="520" y1="0" x2="520" y2="360" stroke="#8ca5c8" stroke-opacity="0.05" stroke-width="1"/><line x1="560" y1="0" x2="560" y2="360" stroke="#8ca5c8" stroke-opacity="0.05" stroke-width="1"/><line x1="0" y1="0" x2="560" y2="0" stroke="#8ca5c8" stroke-opacity="0.05" stroke-width="1"/><line x1="0" y1="40" x2="560" y2="40" stroke="#8ca5c8" stroke-opacity="0.05" stroke-width="1"/><line x1="0" y1="80" x2="560" y2="80" stroke="#8ca5c8" stroke-opacity="0.05" stroke-width="1"/><line x1="0" y1="120" x2="560" y2="120" stroke="#8ca5c8" stroke-opacity="0.05" stroke-width="1"/><line x1="0" y1="160" x2="560" y2="160" stroke="#8ca5c8" stroke-opacity="0.05" stroke-width="1"/><line x1="0" y1="200" x2="560" y2="200" stroke="#8ca5c8" stroke-opacity="0.05" stroke-width="1"/><line x1="0" y1="240" x2="560" y2="240" stroke="#8ca5c8" stroke-opacity="0.05" stroke-width="1"/><line x1="0" y1="280" x2="560" y2="280" stroke="#8ca5c8" stroke-opacity="0.05" stroke-width="1"/><line x1="0" y1="320" x2="560" y2="320" stroke="#8ca5c8" stroke-opacity="0.05" stroke-width="1"/><line x1="0" y1="360" x2="560" y2="360" stroke="#8ca5c8" stroke-opacity="0.05" stroke-width="1"/></g>
  <g><rect x="269" y="92" width="20" height="20" rx="2" fill="#c7d2e0" fill-opacity="0.35"/><rect x="313" y="92" width="20" height="20" rx="2" fill="#d8b367" fill-opacity="0.36"/><rect x="335" y="92" width="20" height="20" rx="2" fill="#d8b367" fill-opacity="0.43"/><rect x="203" y="114" width="20" height="20" rx="2" fill="#d8b367" fill-opacity="0.52"/><rect x="247" y="114" width="20" height="20" rx="2" fill="#c7d2e0" fill-opacity="0.71"/><rect x="291" y="114" width="20" height="20" rx="2" fill="#c7d2e0" fill-opacity="0.66"/><rect x="313" y="114" width="20" height="20" rx="2" fill="#c7d2e0" fill-opacity="0.52"/><rect x="335" y="114" width="20" height="20" rx="2" fill="#c7d2e0" fill-opacity="0.66"/><rect x="269" y="136" width="20" height="20" rx="2" fill="#c7d2e0" fill-opacity="0.51"/><rect x="291" y="136" width="20" height="20" rx="2" fill="#c7d2e0" fill-opacity="0.56"/><rect x="203" y="158" width="20" height="20" rx="2" fill="#c7d2e0" fill-opacity="0.67"/><rect x="247" y="158" width="20" height="20" rx="2" fill="#c7d2e0" fill-opacity="0.79"/><rect x="247" y="180" width="20" height="20" rx="2" fill="#c7d2e0" fill-opacity="0.31"/><rect x="269" y="180" width="20" height="20" rx="2" fill="#d8b367" fill-opacity="0.32"/><rect x="313" y="180" width="20" height="20" rx="2" fill="#d8b367" fill-opacity="0.51"/><rect x="291" y="202" width="20" height="20" rx="2" fill="#d8b367" fill-opacity="0.31"/><rect x="313" y="202" width="20" height="20" rx="2" fill="#c7d2e0" fill-opacity="0.20"/><rect x="335" y="202" width="20" height="20" rx="2" fill="#c7d2e0" fill-opacity="0.48"/><rect x="203" y="224" width="20" height="20" rx="2" fill="#c7d2e0" fill-opacity="0.76"/><rect x="247" y="224" width="20" height="20" rx="2" fill="#d8b367" fill-opacity="0.71"/><rect x="269" y="224" width="20" height="20" rx="2" fill="#c7d2e0" fill-opacity="0.58"/><rect x="313" y="224" width="20" height="20" rx="2" fill="#c7d2e0" fill-opacity="0.25"/><rect x="335" y="224" width="20" height="20" rx="2" fill="#c7d2e0" fill-opacity="0.33"/><rect x="225" y="246" width="20" height="20" rx="2" fill="#c7d2e0" fill-opacity="0.50"/><rect x="313" y="246" width="20" height="20" rx="2" fill="#d8b367" fill-opacity="0.68"/><rect x="335" y="246" width="20" height="20" rx="2" fill="#d8b367" fill-opacity="0.54"/></g>
  <g><circle cx="174.8" cy="303.1" r="2.1" fill="#c7d2e0" fill-opacity="0.54"/><circle cx="439.4" cy="86.3" r="2.1" fill="#c7d2e0" fill-opacity="0.44"/><circle cx="455.3" cy="177.1" r="1.6" fill="#c7d2e0" fill-opacity="0.47"/><circle cx="162.5" cy="130.2" r="1.9" fill="#c7d2e0" fill-opacity="0.35"/><circle cx="529.6" cy="271.4" r="1.4" fill="#c7d2e0" fill-opacity="0.34"/><circle cx="530.3" cy="358.6" r="1.9" fill="#c7d2e0" fill-opacity="0.18"/><circle cx="182.0" cy="124.3" r="2.1" fill="#c7d2e0" fill-opacity="0.16"/><circle cx="450.3" cy="86.3" r="1.6" fill="#c7d2e0" fill-opacity="0.59"/><circle cx="482.9" cy="21.2" r="1.9" fill="#c7d2e0" fill-opacity="0.25"/><circle cx="57.5" cy="146.5" r="0.7" fill="#c7d2e0" fill-opacity="0.57"/><circle cx="145.6" cy="67.4" r="1.7" fill="#c7d2e0" fill-opacity="0.16"/><circle cx="238.8" cy="354.1" r="2.1" fill="#c7d2e0" fill-opacity="0.63"/><circle cx="178.0" cy="183.3" r="0.7" fill="#c7d2e0" fill-opacity="0.43"/><circle cx="372.2" cy="52.7" r="1.7" fill="#c7d2e0" fill-opacity="0.57"/><circle cx="29.1" cy="301.4" r="0.5" fill="#c7d2e0" fill-opacity="0.54"/><circle cx="441.0" cy="303.0" r="1.6" fill="#c7d2e0" fill-opacity="0.22"/><circle cx="351.2" cy="47.2" r="2.1" fill="#c7d2e0" fill-opacity="0.25"/><circle cx="242.9" cy="154.4" r="1.6" fill="#c7d2e0" fill-opacity="0.27"/><circle cx="56.2" cy="61.0" r="0.5" fill="#c7d2e0" fill-opacity="0.57"/><circle cx="174.5" cy="318.5" r="2.1" fill="#c7d2e0" fill-opacity="0.55"/><circle cx="547.4" cy="283.7" r="0.5" fill="#c7d2e0" fill-opacity="0.27"/><circle cx="230.2" cy="205.6" r="0.7" fill="#c7d2e0" fill-opacity="0.44"/><circle cx="326.5" cy="243.7" r="1.4" fill="#c7d2e0" fill-opacity="0.28"/><circle cx="16.5" cy="203.8" r="1.2" fill="#c7d2e0" fill-opacity="0.22"/><circle cx="134.8" cy="267.5" r="2.0" fill="#c7d2e0" fill-opacity="0.32"/><circle cx="341.6" cy="199.9" r="1.0" fill="#c7d2e0" fill-opacity="0.53"/><circle cx="150.6" cy="12.0" r="0.5" fill="#c7d2e0" fill-opacity="0.42"/><circle cx="218.8" cy="103.2" r="1.3" fill="#c7d2e0" fill-opacity="0.30"/><circle cx="440.1" cy="79.5" r="0.5" fill="#c7d2e0" fill-opacity="0.52"/><circle cx="486.8" cy="212.4" r="2.1" fill="#c7d2e0" fill-opacity="0.23"/></g>
  <rect width="560" height="360" filter="url(#grain-logpixel)" opacity="0.5"/>
  <g>
    <path d="M16 42 L16 16 L42 16" stroke="#d8b367" stroke-opacity="0.7" stroke-width="1.5" fill="none"/>
    <path d="M518 16 L544 16 L544 42" stroke="#d8b367" stroke-opacity="0.7" stroke-width="1.5" fill="none"/>
    <path d="M544 318 L544 344 L518 344" stroke="#d8b367" stroke-opacity="0.7" stroke-width="1.5" fill="none"/>
    <path d="M42 344 L16 344 L16 318" stroke="#d8b367" stroke-opacity="0.7" stroke-width="1.5" fill="none"/>
  </g>
  <g font-family="'JetBrains Mono', monospace">
    <rect x="20" y="316" width="120" height="24" rx="12"
      fill="#04060a" fill-opacity="0.55" stroke="#d8b367" stroke-opacity="0.4"/>
    <circle cx="36" cy="328" r="3" fill="#d8b367"/>
    <text x="48" y="332" fill="#c7d2e0" fill-opacity="0.85" font-size="11" letter-spacing="2">PIXEL</text>
  </g>
</svg>