<svg xmlns="http://www.w3.org/2000/svg" width="1200" height="630" viewBox="0 0 1200 630" role="img" aria-label="og-cover placeholder">
  
  <defs>
    <radialGradient id="aur-ogcover" cx="32%" cy="8%" r="90%">
      <stop offset="0%" stop-color="#8a7cf0" stop-opacity="0.55"/>
      <stop offset="38%" stop-color="#8a7cf0" stop-opacity="0.18"/>
      <stop offset="100%" stop-color="#04060a" stop-opacity="0"/>
    </radialGradient>
    <linearGradient id="bg-ogcover" x1="0" y1="0" x2="1" y2="1">
      <stop offset="0%" stop-color="#0b1220"/>
      <stop offset="55%" stop-color="#070b12"/>
      <stop offset="100%" stop-color="#04060a"/>
    </linearGradient>
    <linearGradient id="ink-ogcover" x1="0" y1="0" x2="1" y2="1">
      <stop offset="0%" stop-color="#8a7cf0" stop-opacity="0.9"/>
      <stop offset="100%" stop-color="#8a7cf0" stop-opacity="0.5"/>
    </linearGradient>
    <filter id="soft-ogcover" x="-40%" y="-40%" width="180%" height="180%">
      <feGaussianBlur stdDeviation="22"/>
    </filter>
    <filter id="grain-ogcover">
      <feTurbulence type="fractalNoise" baseFrequency="0.85" numOctaves="2" stitchTiles="stitch"/>
      <feColorMatrix type="saturate" values="0"/>
      <feComponentTransfer><feFuncA type="linear" slope="0.06"/></feComponentTransfer>
    </filter>
  </defs>
  <rect width="1200" height="630" fill="url(#bg-ogcover)"/>
  <rect width="1200" height="630" fill="url(#aur-ogcover)"/>
  <g><line x1="0" y1="0" x2="0" y2="630" stroke="#8ca5c8" stroke-opacity="0.05" stroke-width="1"/><line x1="40" y1="0" x2="40" y2="630" stroke="#8ca5c8" stroke-opacity="0.05" stroke-width="1"/><line x1="80" y1="0" x2="80" y2="630" stroke="#8ca5c8" stroke-opacity="0.05" stroke-width="1"/><line x1="120" y1="0" x2="120" y2="630" stroke="#8ca5c8" stroke-opacity="0.05" stroke-width="1"/><line x1="160" y1="0" x2="160" y2="630" stroke="#8ca5c8" stroke-opacity="0.05" stroke-width="1"/><line x1="200" y1="0" x2="200" y2="630" stroke="#8ca5c8" stroke-opacity="0.05" stroke-width="1"/><line x1="240" y1="0" x2="240" y2="630" stroke="#8ca5c8" stroke-opacity="0.05" stroke-width="1"/><line x1="280" y1="0" x2="280" y2="630" stroke="#8ca5c8" stroke-opacity="0.05" stroke-width="1"/><line x1="320" y1="0" x2="320" y2="630" stroke="#8ca5c8" stroke-opacity="0.05" stroke-width="1"/><line x1="360" y1="0" x2="360" y2="630" stroke="#8ca5c8" stroke-opacity="0.05" stroke-width="1"/><line x1="400" y1="0" x2="400" y2="630" stroke="#8ca5c8" stroke-opacity="0.05" stroke-width="1"/><line x1="440" y1="0" x2="440" y2="630" stroke="#8ca5c8" stroke-opacity="0.05" stroke-width="1"/><line x1="480" y1="0" x2="480" y2="630" stroke="#8ca5c8" stroke-opacity="0.05" stroke-width="1"/><line x1="520" y1="0" x2="520" y2="630" stroke="#8ca5c8" stroke-opacity="0.05" stroke-width="1"/><line x1="560" y1="0" x2="560" y2="630" stroke="#8ca5c8" stroke-opacity="0.05" stroke-width="1"/><line x1="600" y1="0" x2="600" y2="630" stroke="#8ca5c8" stroke-opacity="0.05" stroke-width="1"/><line x1="640" y1="0" x2="640" y2="630" stroke="#8ca5c8" stroke-opacity="0.05" stroke-width="1"/><line x1="680" y1="0" x2="680" y2="630" stroke="#8ca5c8" stroke-opacity="0.05" stroke-width="1"/><line x1="720" y1="0" x2="720" y2="630" stroke="#8ca5c8" stroke-opacity="0.05" stroke-width="1"/><line x1="760" y1="0" x2="760" y2="630" stroke="#8ca5c8" stroke-opacity="0.05" stroke-width="1"/><line x1="800" y1="0" x2="800" y2="630" stroke="#8ca5c8" stroke-opacity="0.05" stroke-width="1"/><line x1="840" y1="0" x2="840" y2="630" stroke="#8ca5c8" stroke-opacity="0.05" stroke-width="1"/><line x1="880" y1="0" x2="880" y2="630" stroke="#8ca5c8" stroke-opacity="0.05" stroke-width="1"/><line x1="920" y1="0" x2="920" y2="630" stroke="#8ca5c8" stroke-opacity="0.05" stroke-width="1"/><line x1="960" y1="0" x2="960" y2="630" stroke="#8ca5c8" stroke-opacity="0.05" stroke-width="1"/><line x1="1000" y1="0" x2="1000" y2="630" stroke="#8ca5c8" stroke-opacity="0.05" stroke-width="1"/><line x1="1040" y1="0" x2="1040" y2="630" stroke="#8ca5c8" stroke-opacity="0.05" stroke-width="1"/><line x1="1080" y1="0" x2="1080" y2="630" stroke="#8ca5c8" stroke-opacity="0.05" stroke-width="1"/><line x1="1120" y1="0" x2="1120" y2="630" stroke="#8ca5c8" stroke-opacity="0.05" stroke-width="1"/><line x1="1160" y1="0" x2="1160" y2="630" stroke="#8ca5c8" stroke-opacity="0.05" stroke-width="1"/><line x1="1200" y1="0" x2="1200" y2="630" stroke="#8ca5c8" stroke-opacity="0.05" stroke-width="1"/><line x1="0" y1="0" x2="1200" y2="0" stroke="#8ca5c8" stroke-opacity="0.05" stroke-width="1"/><line x1="0" y1="40" x2="1200" y2="40" stroke="#8ca5c8" stroke-opacity="0.05" stroke-width="1"/><line x1="0" y1="80" x2="1200" y2="80" stroke="#8ca5c8" stroke-opacity="0.05" stroke-width="1"/><line x1="0" y1="120" x2="1200" y2="120" stroke="#8ca5c8" stroke-opacity="0.05" stroke-width="1"/><line x1="0" y1="160" x2="1200" y2="160" stroke="#8ca5c8" stroke-opacity="0.05" stroke-width="1"/><line x1="0" y1="200" x2="1200" y2="200" stroke="#8ca5c8" stroke-opacity="0.05" stroke-width="1"/><line x1="0" y1="240" x2="1200" y2="240" stroke="#8ca5c8" stroke-opacity="0.05" stroke-width="1"/><line x1="0" y1="280" x2="1200" y2="280" stroke="#8ca5c8" stroke-opacity="0.05" stroke-width="1"/><line x1="0" y1="320" x2="1200" y2="320" stroke="#8ca5c8" stroke-opacity="0.05" stroke-width="1"/><line x1="0" y1="360" x2="1200" y2="360" stroke="#8ca5c8" stroke-opacity="0.05" stroke-width="1"/><line x1="0" y1="400" x2="1200" y2="400" stroke="#8ca5c8" stroke-opacity="0.05" stroke-width="1"/><line x1="0" y1="440" x2="1200" y2="440" stroke="#8ca5c8" stroke-opacity="0.05" stroke-width="1"/><line x1="0" y1="480" x2="1200" y2="480" stroke="#8ca5c8" stroke-opacity="0.05" stroke-width="1"/><line x1="0" y1="520" x2="1200" y2="520" stroke="#8ca5c8" stroke-opacity="0.05" stroke-width="1"/><line x1="0" y1="560" x2="1200" y2="560" stroke="#8ca5c8" stroke-opacity="0.05" stroke-width="1"/><line x1="0" y1="600" x2="1200" y2="600" stroke="#8ca5c8" stroke-opacity="0.05" stroke-width="1"/></g>
  
      <circle cx="744" cy="264.59999999999997" r="176.4" fill="url(#ink-ogcover)" fill-opacity="0.18" filter="url(#soft-ogcover)"/>
      <circle cx="744" cy="264.59999999999997" r="176.4" fill="none" stroke="url(#ink-ogcover)" stroke-opacity="0.6" stroke-width="1.5"/>
      <circle cx="744" cy="264.59999999999997" r="109.36800000000001" fill="none" stroke="#c7d2e0" stroke-opacity="0.18" stroke-width="1"/>
      <g filter="url(#soft-ogcover)" opacity="0.9"><path d="M -120 465.68607780376595
      C 367.6873763016629 296.3080120752352, 886.6453533262586 635.0641435322967, 1320 397.93485151235365" fill="none" stroke="#8a7cf0" stroke-opacity="0.21778134325933207" stroke-width="2.3333712023993423" stroke-linecap="round"/><path d="M -120 145.18756348946775
      C 399.8848403058678 -37.60507660666596, 930.4044743744666 327.98020358560143, 1320 72.07050745101427" fill="none" stroke="#8a7cf0" stroke-opacity="0.24034175100744276" stroke-width="3.042829299262452" stroke-linecap="round"/><path d="M -120 246.06201518281875
      C 431.0377385725821 38.09192205921093, 828.3798035486553 454.0321083064266, 1320 162.8739779333756" fill="none" stroke="#8a7cf0" stroke-opacity="0.16895549976475432" stroke-width="2.491161363360277" stroke-linecap="round"/></g>
  <g><circle cx="1082.1" cy="253.4" r="0.4" fill="#c7d2e0" fill-opacity="0.65"/><circle cx="1064.8" cy="373.5" r="1.3" fill="#c7d2e0" fill-opacity="0.20"/><circle cx="883.1" cy="211.9" r="1.3" fill="#c7d2e0" fill-opacity="0.27"/><circle cx="159.0" cy="358.8" r="1.5" fill="#c7d2e0" fill-opacity="0.24"/><circle cx="1015.9" cy="269.4" r="1.2" fill="#c7d2e0" fill-opacity="0.58"/><circle cx="896.5" cy="179.0" r="2.0" fill="#c7d2e0" fill-opacity="0.36"/><circle cx="889.3" cy="183.2" r="1.6" fill="#c7d2e0" fill-opacity="0.40"/><circle cx="329.3" cy="466.1" r="0.5" fill="#c7d2e0" fill-opacity="0.54"/><circle cx="345.8" cy="524.2" r="1.1" fill="#c7d2e0" fill-opacity="0.55"/><circle cx="922.3" cy="424.9" r="1.7" fill="#c7d2e0" fill-opacity="0.62"/><circle cx="339.1" cy="370.4" r="1.6" fill="#c7d2e0" fill-opacity="0.41"/><circle cx="168.1" cy="33.8" r="1.3" fill="#c7d2e0" fill-opacity="0.60"/><circle cx="86.0" cy="550.7" r="1.5" fill="#c7d2e0" fill-opacity="0.60"/><circle cx="677.3" cy="238.5" r="1.1" fill="#c7d2e0" fill-opacity="0.52"/><circle cx="294.1" cy="472.6" r="1.5" fill="#c7d2e0" fill-opacity="0.39"/><circle cx="1142.6" cy="506.6" r="2.0" fill="#c7d2e0" fill-opacity="0.53"/><circle cx="464.0" cy="499.9" r="1.2" fill="#c7d2e0" fill-opacity="0.19"/><circle cx="579.4" cy="44.8" r="1.4" fill="#c7d2e0" fill-opacity="0.65"/><circle cx="1066.8" cy="433.3" r="0.6" fill="#c7d2e0" fill-opacity="0.23"/><circle cx="240.0" cy="157.7" r="1.0" fill="#c7d2e0" fill-opacity="0.57"/><circle cx="996.2" cy="392.8" r="1.8" fill="#c7d2e0" fill-opacity="0.38"/><circle cx="803.8" cy="188.2" r="2.0" fill="#c7d2e0" fill-opacity="0.27"/><circle cx="1096.1" cy="321.8" r="2.0" fill="#c7d2e0" fill-opacity="0.18"/><circle cx="842.2" cy="270.5" r="1.2" fill="#c7d2e0" fill-opacity="0.18"/><circle cx="562.6" cy="2.8" r="0.5" fill="#c7d2e0" fill-opacity="0.46"/><circle cx="158.2" cy="184.2" r="0.7" fill="#c7d2e0" fill-opacity="0.52"/><circle cx="621.8" cy="215.7" r="1.0" fill="#c7d2e0" fill-opacity="0.62"/><circle cx="801.3" cy="610.8" r="0.5" fill="#c7d2e0" fill-opacity="0.30"/><circle cx="1081.8" cy="627.1" r="1.3" fill="#c7d2e0" fill-opacity="0.64"/><circle cx="957.5" cy="491.8" r="1.1" fill="#c7d2e0" fill-opacity="0.50"/></g>
  <rect width="1200" height="630" filter="url(#grain-ogcover)" opacity="0.5"/>
  <g>
    <path d="M16 42 L16 16 L42 16" stroke="#8a7cf0" stroke-opacity="0.7" stroke-width="1.5" fill="none"/>
    <path d="M1158 16 L1184 16 L1184 42" stroke="#8a7cf0" stroke-opacity="0.7" stroke-width="1.5" fill="none"/>
    <path d="M1184 588 L1184 614 L1158 614" stroke="#8a7cf0" stroke-opacity="0.7" stroke-width="1.5" fill="none"/>
    <path d="M42 614 L16 614 L16 588" stroke="#8a7cf0" stroke-opacity="0.7" stroke-width="1.5" fill="none"/>
  </g>
  <g font-family="'JetBrains Mono', monospace">
    <rect x="20" y="586" width="120" height="24" rx="12"
      fill="#04060a" fill-opacity="0.55" stroke="#8a7cf0" stroke-opacity="0.4"/>
    <circle cx="36" cy="598" r="3" fill="#8a7cf0"/>
    <text x="48" y="602" fill="#c7d2e0" fill-opacity="0.85" font-size="11" letter-spacing="2">PHIA GAMES</text>
  </g>
</svg>