<svg xmlns="http://www.w3.org/2000/svg" width="800" height="600" viewBox="0 0 800 600" role="img" aria-label="work-visual placeholder">
  
  <defs>
    <radialGradient id="aur-workvisual" cx="32%" cy="8%" r="90%">
      <stop offset="0%" stop-color="#8a7cf0" stop-opacity="0.55"/>
      <stop offset="38%" stop-color="#8a7cf0" stop-opacity="0.18"/>
      <stop offset="100%" stop-color="#04060a" stop-opacity="0"/>
    </radialGradient>
    <linearGradient id="bg-workvisual" x1="0" y1="0" x2="1" y2="1">
      <stop offset="0%" stop-color="#0b1220"/>
      <stop offset="55%" stop-color="#070b12"/>
      <stop offset="100%" stop-color="#04060a"/>
    </linearGradient>
    <linearGradient id="ink-workvisual" x1="0" y1="0" x2="1" y2="1">
      <stop offset="0%" stop-color="#8a7cf0" stop-opacity="0.9"/>
      <stop offset="100%" stop-color="#8a7cf0" stop-opacity="0.5"/>
    </linearGradient>
    <filter id="soft-workvisual" x="-40%" y="-40%" width="180%" height="180%">
      <feGaussianBlur stdDeviation="22"/>
    </filter>
    <filter id="grain-workvisual">
      <feTurbulence type="fractalNoise" baseFrequency="0.85" numOctaves="2" stitchTiles="stitch"/>
      <feColorMatrix type="saturate" values="0"/>
      <feComponentTransfer><feFuncA type="linear" slope="0.06"/></feComponentTransfer>
    </filter>
  </defs>
  <rect width="800" height="600" fill="url(#bg-workvisual)"/>
  <rect width="800" height="600" fill="url(#aur-workvisual)"/>
  <g><line x1="0" y1="0" x2="0" y2="600" stroke="#8ca5c8" stroke-opacity="0.05" stroke-width="1"/><line x1="40" y1="0" x2="40" y2="600" stroke="#8ca5c8" stroke-opacity="0.05" stroke-width="1"/><line x1="80" y1="0" x2="80" y2="600" stroke="#8ca5c8" stroke-opacity="0.05" stroke-width="1"/><line x1="120" y1="0" x2="120" y2="600" stroke="#8ca5c8" stroke-opacity="0.05" stroke-width="1"/><line x1="160" y1="0" x2="160" y2="600" stroke="#8ca5c8" stroke-opacity="0.05" stroke-width="1"/><line x1="200" y1="0" x2="200" y2="600" stroke="#8ca5c8" stroke-opacity="0.05" stroke-width="1"/><line x1="240" y1="0" x2="240" y2="600" stroke="#8ca5c8" stroke-opacity="0.05" stroke-width="1"/><line x1="280" y1="0" x2="280" y2="600" stroke="#8ca5c8" stroke-opacity="0.05" stroke-width="1"/><line x1="320" y1="0" x2="320" y2="600" stroke="#8ca5c8" stroke-opacity="0.05" stroke-width="1"/><line x1="360" y1="0" x2="360" y2="600" stroke="#8ca5c8" stroke-opacity="0.05" stroke-width="1"/><line x1="400" y1="0" x2="400" y2="600" stroke="#8ca5c8" stroke-opacity="0.05" stroke-width="1"/><line x1="440" y1="0" x2="440" y2="600" stroke="#8ca5c8" stroke-opacity="0.05" stroke-width="1"/><line x1="480" y1="0" x2="480" y2="600" stroke="#8ca5c8" stroke-opacity="0.05" stroke-width="1"/><line x1="520" y1="0" x2="520" y2="600" stroke="#8ca5c8" stroke-opacity="0.05" stroke-width="1"/><line x1="560" y1="0" x2="560" y2="600" stroke="#8ca5c8" stroke-opacity="0.05" stroke-width="1"/><line x1="600" y1="0" x2="600" y2="600" stroke="#8ca5c8" stroke-opacity="0.05" stroke-width="1"/><line x1="640" y1="0" x2="640" y2="600" stroke="#8ca5c8" stroke-opacity="0.05" stroke-width="1"/><line x1="680" y1="0" x2="680" y2="600" stroke="#8ca5c8" stroke-opacity="0.05" stroke-width="1"/><line x1="720" y1="0" x2="720" y2="600" stroke="#8ca5c8" stroke-opacity="0.05" stroke-width="1"/><line x1="760" y1="0" x2="760" y2="600" stroke="#8ca5c8" stroke-opacity="0.05" stroke-width="1"/><line x1="800" y1="0" x2="800" y2="600" stroke="#8ca5c8" stroke-opacity="0.05" stroke-width="1"/><line x1="0" y1="0" x2="800" y2="0" stroke="#8ca5c8" stroke-opacity="0.05" stroke-width="1"/><line x1="0" y1="40" x2="800" y2="40" stroke="#8ca5c8" stroke-opacity="0.05" stroke-width="1"/><line x1="0" y1="80" x2="800" y2="80" stroke="#8ca5c8" stroke-opacity="0.05" stroke-width="1"/><line x1="0" y1="120" x2="800" y2="120" stroke="#8ca5c8" stroke-opacity="0.05" stroke-width="1"/><line x1="0" y1="160" x2="800" y2="160" stroke="#8ca5c8" stroke-opacity="0.05" stroke-width="1"/><line x1="0" y1="200" x2="800" y2="200" stroke="#8ca5c8" stroke-opacity="0.05" stroke-width="1"/><line x1="0" y1="240" x2="800" y2="240" stroke="#8ca5c8" stroke-opacity="0.05" stroke-width="1"/><line x1="0" y1="280" x2="800" y2="280" stroke="#8ca5c8" stroke-opacity="0.05" stroke-width="1"/><line x1="0" y1="320" x2="800" y2="320" stroke="#8ca5c8" stroke-opacity="0.05" stroke-width="1"/><line x1="0" y1="360" x2="800" y2="360" stroke="#8ca5c8" stroke-opacity="0.05" stroke-width="1"/><line x1="0" y1="400" x2="800" y2="400" stroke="#8ca5c8" stroke-opacity="0.05" stroke-width="1"/><line x1="0" y1="440" x2="800" y2="440" stroke="#8ca5c8" stroke-opacity="0.05" stroke-width="1"/><line x1="0" y1="480" x2="800" y2="480" stroke="#8ca5c8" stroke-opacity="0.05" stroke-width="1"/><line x1="0" y1="520" x2="800" y2="520" stroke="#8ca5c8" stroke-opacity="0.05" stroke-width="1"/><line x1="0" y1="560" x2="800" y2="560" stroke="#8ca5c8" stroke-opacity="0.05" stroke-width="1"/><line x1="0" y1="600" x2="800" y2="600" stroke="#8ca5c8" stroke-opacity="0.05" stroke-width="1"/></g>
  <g filter="url(#soft-workvisual)" opacity="0.9"><path d="M -80 375.5083840003955
      C 256.51969554287376 252.99502524197914, 603.9569711601262 498.02174275881185, 880.0000000000001 326.50304049702896" fill="none" stroke="#8a7cf0" stroke-opacity="0.2008711913788857" stroke-width="2.1271471722813198" stroke-linecap="round"/><path d="M -80 474.5313155358962
      C 246.53679991293157 298.8235140477361, 624.6124105864699 650.2391170240563, 880.0000000000001 404.2481949406322" fill="none" stroke="#8a7cf0" stroke-opacity="0.2029637721001552" stroke-width="2.956694119134148" stroke-linecap="round"/><path d="M -80 368.61090079150415
      C 230.60652719591897 214.28393116274006, 607.4242989643068 522.9378704202683, 880.0000000000001 306.8801129399985" fill="none" stroke="#8a7cf0" stroke-opacity="0.15036964018604942" stroke-width="1.1343258221015162" stroke-linecap="round"/><path d="M -80 171.95202694552768
      C 225.2858222427978 -7.340447929534207, 481.0142669456578 351.24450182058956, 880.0000000000001 100.23503699550292" fill="none" stroke="#8a7cf0" stroke-opacity="0.15928988647630668" stroke-width="3.256873056072945" stroke-linecap="round"/><path d="M -80 471.09590216332487
      C 311.5171966309466 328.91707164536166, 519.434281261506 613.274732681288, 880.0000000000001 414.2243699561396" fill="none" stroke="#8a7cf0" stroke-opacity="0.1989258230288806" stroke-width="1.371586018514723" stroke-linecap="round"/></g>
  <g><circle cx="571.2" cy="228.3" r="0.6" fill="#c7d2e0" fill-opacity="0.24"/><circle cx="640.6" cy="438.2" r="1.7" fill="#c7d2e0" fill-opacity="0.58"/><circle cx="109.4" cy="321.5" r="1.9" fill="#c7d2e0" fill-opacity="0.18"/><circle cx="348.8" cy="56.2" r="2.1" fill="#c7d2e0" fill-opacity="0.61"/><circle cx="592.5" cy="214.2" r="1.2" fill="#c7d2e0" fill-opacity="0.43"/><circle cx="8.0" cy="118.5" r="1.0" fill="#c7d2e0" fill-opacity="0.17"/><circle cx="213.3" cy="234.9" r="1.4" fill="#c7d2e0" fill-opacity="0.49"/><circle cx="50.6" cy="170.2" r="0.8" fill="#c7d2e0" fill-opacity="0.60"/><circle cx="228.9" cy="197.3" r="2.2" fill="#c7d2e0" fill-opacity="0.41"/><circle cx="449.4" cy="580.8" r="2.1" fill="#c7d2e0" fill-opacity="0.41"/><circle cx="624.9" cy="324.5" r="2.2" fill="#c7d2e0" fill-opacity="0.56"/><circle cx="406.5" cy="111.8" r="2.0" fill="#c7d2e0" fill-opacity="0.28"/><circle cx="229.7" cy="561.8" r="0.6" fill="#c7d2e0" fill-opacity="0.22"/><circle cx="92.6" cy="273.1" r="2.1" fill="#c7d2e0" fill-opacity="0.52"/><circle cx="478.4" cy="76.0" r="1.7" fill="#c7d2e0" fill-opacity="0.62"/><circle cx="435.5" cy="266.3" r="2.1" fill="#c7d2e0" fill-opacity="0.45"/><circle cx="26.7" cy="542.1" r="1.8" fill="#c7d2e0" fill-opacity="0.40"/><circle cx="160.0" cy="515.2" r="0.7" fill="#c7d2e0" fill-opacity="0.64"/><circle cx="215.1" cy="18.8" r="1.3" fill="#c7d2e0" fill-opacity="0.39"/><circle cx="476.0" cy="384.6" r="0.4" fill="#c7d2e0" fill-opacity="0.56"/><circle cx="583.3" cy="209.7" r="1.2" fill="#c7d2e0" fill-opacity="0.43"/><circle cx="618.5" cy="286.0" r="1.1" fill="#c7d2e0" fill-opacity="0.22"/><circle cx="433.5" cy="113.5" r="0.7" fill="#c7d2e0" fill-opacity="0.45"/><circle cx="235.9" cy="370.6" r="1.7" fill="#c7d2e0" fill-opacity="0.58"/><circle cx="45.2" cy="60.9" r="1.1" fill="#c7d2e0" fill-opacity="0.60"/><circle cx="629.6" cy="11.0" r="0.9" fill="#c7d2e0" fill-opacity="0.48"/><circle cx="738.8" cy="539.2" r="1.9" fill="#c7d2e0" fill-opacity="0.17"/><circle cx="42.7" cy="468.5" r="1.1" fill="#c7d2e0" fill-opacity="0.42"/><circle cx="590.0" cy="4.4" r="1.5" fill="#c7d2e0" fill-opacity="0.46"/><circle cx="599.2" cy="550.0" r="0.8" fill="#c7d2e0" fill-opacity="0.28"/></g>
  <rect width="800" height="600" filter="url(#grain-workvisual)" opacity="0.5"/>
  <g>
    <path d="M16 42 L16 16 L42 16" stroke="#8a7cf0" stroke-opacity="0.7" stroke-width="1.5" fill="none"/>
    <path d="M758 16 L784 16 L784 42" stroke="#8a7cf0" stroke-opacity="0.7" stroke-width="1.5" fill="none"/>
    <path d="M784 558 L784 584 L758 584" stroke="#8a7cf0" stroke-opacity="0.7" stroke-width="1.5" fill="none"/>
    <path d="M42 584 L16 584 L16 558" stroke="#8a7cf0" stroke-opacity="0.7" stroke-width="1.5" fill="none"/>
  </g>
  <g font-family="'JetBrains Mono', monospace">
    <rect x="20" y="556" width="120" height="24" rx="12"
      fill="#04060a" fill-opacity="0.55" stroke="#8a7cf0" stroke-opacity="0.4"/>
    <circle cx="36" cy="568" r="3" fill="#8a7cf0"/>
    <text x="48" y="572" fill="#c7d2e0" fill-opacity="0.85" font-size="11" letter-spacing="2">VISUAL EXP</text>
  </g>
</svg>