<svg xmlns="http://www.w3.org/2000/svg" width="800" height="600" viewBox="0 0 800 600" role="img" aria-label="work-pixel placeholder">
  
  <defs>
    <radialGradient id="aur-workpixel" cx="32%" cy="8%" r="90%">
      <stop offset="0%" stop-color="#d8b367" stop-opacity="0.55"/>
      <stop offset="38%" stop-color="#8a7cf0" stop-opacity="0.18"/>
      <stop offset="100%" stop-color="#04060a" stop-opacity="0"/>
    </radialGradient>
    <linearGradient id="bg-workpixel" x1="0" y1="0" x2="1" y2="1">
      <stop offset="0%" stop-color="#0b1220"/>
      <stop offset="55%" stop-color="#070b12"/>
      <stop offset="100%" stop-color="#04060a"/>
    </linearGradient>
    <linearGradient id="ink-workpixel" x1="0" y1="0" x2="1" y2="1">
      <stop offset="0%" stop-color="#d8b367" stop-opacity="0.9"/>
      <stop offset="100%" stop-color="#8a7cf0" stop-opacity="0.5"/>
    </linearGradient>
    <filter id="soft-workpixel" x="-40%" y="-40%" width="180%" height="180%">
      <feGaussianBlur stdDeviation="22"/>
    </filter>
    <filter id="grain-workpixel">
      <feTurbulence type="fractalNoise" baseFrequency="0.85" numOctaves="2" stitchTiles="stitch"/>
      <feColorMatrix type="saturate" values="0"/>
      <feComponentTransfer><feFuncA type="linear" slope="0.06"/></feComponentTransfer>
    </filter>
  </defs>
  <rect width="800" height="600" fill="url(#bg-workpixel)"/>
  <rect width="800" height="600" fill="url(#aur-workpixel)"/>
  <g><line x1="0" y1="0" x2="0" y2="600" stroke="#8ca5c8" stroke-opacity="0.05" stroke-width="1"/><line x1="40" y1="0" x2="40" y2="600" stroke="#8ca5c8" stroke-opacity="0.05" stroke-width="1"/><line x1="80" y1="0" x2="80" y2="600" stroke="#8ca5c8" stroke-opacity="0.05" stroke-width="1"/><line x1="120" y1="0" x2="120" y2="600" stroke="#8ca5c8" stroke-opacity="0.05" stroke-width="1"/><line x1="160" y1="0" x2="160" y2="600" stroke="#8ca5c8" stroke-opacity="0.05" stroke-width="1"/><line x1="200" y1="0" x2="200" y2="600" stroke="#8ca5c8" stroke-opacity="0.05" stroke-width="1"/><line x1="240" y1="0" x2="240" y2="600" stroke="#8ca5c8" stroke-opacity="0.05" stroke-width="1"/><line x1="280" y1="0" x2="280" y2="600" stroke="#8ca5c8" stroke-opacity="0.05" stroke-width="1"/><line x1="320" y1="0" x2="320" y2="600" stroke="#8ca5c8" stroke-opacity="0.05" stroke-width="1"/><line x1="360" y1="0" x2="360" y2="600" stroke="#8ca5c8" stroke-opacity="0.05" stroke-width="1"/><line x1="400" y1="0" x2="400" y2="600" stroke="#8ca5c8" stroke-opacity="0.05" stroke-width="1"/><line x1="440" y1="0" x2="440" y2="600" stroke="#8ca5c8" stroke-opacity="0.05" stroke-width="1"/><line x1="480" y1="0" x2="480" y2="600" stroke="#8ca5c8" stroke-opacity="0.05" stroke-width="1"/><line x1="520" y1="0" x2="520" y2="600" stroke="#8ca5c8" stroke-opacity="0.05" stroke-width="1"/><line x1="560" y1="0" x2="560" y2="600" stroke="#8ca5c8" stroke-opacity="0.05" stroke-width="1"/><line x1="600" y1="0" x2="600" y2="600" stroke="#8ca5c8" stroke-opacity="0.05" stroke-width="1"/><line x1="640" y1="0" x2="640" y2="600" stroke="#8ca5c8" stroke-opacity="0.05" stroke-width="1"/><line x1="680" y1="0" x2="680" y2="600" stroke="#8ca5c8" stroke-opacity="0.05" stroke-width="1"/><line x1="720" y1="0" x2="720" y2="600" stroke="#8ca5c8" stroke-opacity="0.05" stroke-width="1"/><line x1="760" y1="0" x2="760" y2="600" stroke="#8ca5c8" stroke-opacity="0.05" stroke-width="1"/><line x1="800" y1="0" x2="800" y2="600" stroke="#8ca5c8" stroke-opacity="0.05" stroke-width="1"/><line x1="0" y1="0" x2="800" y2="0" stroke="#8ca5c8" stroke-opacity="0.05" stroke-width="1"/><line x1="0" y1="40" x2="800" y2="40" stroke="#8ca5c8" stroke-opacity="0.05" stroke-width="1"/><line x1="0" y1="80" x2="800" y2="80" stroke="#8ca5c8" stroke-opacity="0.05" stroke-width="1"/><line x1="0" y1="120" x2="800" y2="120" stroke="#8ca5c8" stroke-opacity="0.05" stroke-width="1"/><line x1="0" y1="160" x2="800" y2="160" stroke="#8ca5c8" stroke-opacity="0.05" stroke-width="1"/><line x1="0" y1="200" x2="800" y2="200" stroke="#8ca5c8" stroke-opacity="0.05" stroke-width="1"/><line x1="0" y1="240" x2="800" y2="240" stroke="#8ca5c8" stroke-opacity="0.05" stroke-width="1"/><line x1="0" y1="280" x2="800" y2="280" stroke="#8ca5c8" stroke-opacity="0.05" stroke-width="1"/><line x1="0" y1="320" x2="800" y2="320" stroke="#8ca5c8" stroke-opacity="0.05" stroke-width="1"/><line x1="0" y1="360" x2="800" y2="360" stroke="#8ca5c8" stroke-opacity="0.05" stroke-width="1"/><line x1="0" y1="400" x2="800" y2="400" stroke="#8ca5c8" stroke-opacity="0.05" stroke-width="1"/><line x1="0" y1="440" x2="800" y2="440" stroke="#8ca5c8" stroke-opacity="0.05" stroke-width="1"/><line x1="0" y1="480" x2="800" y2="480" stroke="#8ca5c8" stroke-opacity="0.05" stroke-width="1"/><line x1="0" y1="520" x2="800" y2="520" stroke="#8ca5c8" stroke-opacity="0.05" stroke-width="1"/><line x1="0" y1="560" x2="800" y2="560" stroke="#8ca5c8" stroke-opacity="0.05" stroke-width="1"/><line x1="0" y1="600" x2="800" y2="600" stroke="#8ca5c8" stroke-opacity="0.05" stroke-width="1"/></g>
  <g><rect x="389" y="212" width="20" height="20" rx="2" fill="#c7d2e0" fill-opacity="0.68"/><rect x="345" y="234" width="20" height="20" rx="2" fill="#c7d2e0" fill-opacity="0.62"/><rect x="411" y="234" width="20" height="20" rx="2" fill="#d8b367" fill-opacity="0.67"/><rect x="455" y="234" width="20" height="20" rx="2" fill="#d8b367" fill-opacity="0.55"/><rect x="323" y="256" width="20" height="20" rx="2" fill="#c7d2e0" fill-opacity="0.26"/><rect x="411" y="256" width="20" height="20" rx="2" fill="#c7d2e0" fill-opacity="0.77"/><rect x="433" y="256" width="20" height="20" rx="2" fill="#c7d2e0" fill-opacity="0.66"/><rect x="455" y="256" width="20" height="20" rx="2" fill="#c7d2e0" fill-opacity="0.50"/><rect x="323" y="278" width="20" height="20" rx="2" fill="#c7d2e0" fill-opacity="0.48"/><rect x="367" y="278" width="20" height="20" rx="2" fill="#d8b367" fill-opacity="0.51"/><rect x="389" y="278" width="20" height="20" rx="2" fill="#c7d2e0" fill-opacity="0.63"/><rect x="433" y="278" width="20" height="20" rx="2" fill="#c7d2e0" fill-opacity="0.67"/><rect x="323" y="300" width="20" height="20" rx="2" fill="#c7d2e0" fill-opacity="0.39"/><rect x="433" y="300" width="20" height="20" rx="2" fill="#c7d2e0" fill-opacity="0.70"/><rect x="433" y="322" width="20" height="20" rx="2" fill="#c7d2e0" fill-opacity="0.45"/><rect x="389" y="344" width="20" height="20" rx="2" fill="#d8b367" fill-opacity="0.70"/><rect x="433" y="344" width="20" height="20" rx="2" fill="#c7d2e0" fill-opacity="0.78"/><rect x="455" y="344" width="20" height="20" rx="2" fill="#c7d2e0" fill-opacity="0.66"/><rect x="323" y="366" width="20" height="20" rx="2" fill="#c7d2e0" fill-opacity="0.69"/><rect x="389" y="366" width="20" height="20" rx="2" fill="#c7d2e0" fill-opacity="0.27"/><rect x="411" y="366" width="20" height="20" rx="2" fill="#c7d2e0" fill-opacity="0.54"/><rect x="433" y="366" width="20" height="20" rx="2" fill="#d8b367" fill-opacity="0.53"/></g>
  <g><circle cx="312.7" cy="522.0" r="0.5" fill="#c7d2e0" fill-opacity="0.62"/><circle cx="194.6" cy="476.0" r="0.8" fill="#c7d2e0" fill-opacity="0.49"/><circle cx="338.2" cy="317.8" r="1.5" fill="#c7d2e0" fill-opacity="0.59"/><circle cx="487.9" cy="523.5" r="0.5" fill="#c7d2e0" fill-opacity="0.53"/><circle cx="432.0" cy="502.9" r="1.4" fill="#c7d2e0" fill-opacity="0.20"/><circle cx="545.8" cy="496.0" r="1.2" fill="#c7d2e0" fill-opacity="0.52"/><circle cx="459.5" cy="496.6" r="1.5" fill="#c7d2e0" fill-opacity="0.39"/><circle cx="165.1" cy="448.0" r="1.0" fill="#c7d2e0" fill-opacity="0.39"/><circle cx="74.1" cy="110.6" r="1.0" fill="#c7d2e0" fill-opacity="0.20"/><circle cx="737.9" cy="144.7" r="1.9" fill="#c7d2e0" fill-opacity="0.18"/><circle cx="744.5" cy="108.2" r="2.2" fill="#c7d2e0" fill-opacity="0.52"/><circle cx="303.2" cy="15.1" r="1.0" fill="#c7d2e0" fill-opacity="0.25"/><circle cx="630.4" cy="250.6" r="1.4" fill="#c7d2e0" fill-opacity="0.46"/><circle cx="648.4" cy="192.2" r="1.3" fill="#c7d2e0" fill-opacity="0.63"/><circle cx="709.9" cy="230.8" r="1.4" fill="#c7d2e0" fill-opacity="0.39"/><circle cx="61.2" cy="40.8" r="0.5" fill="#c7d2e0" fill-opacity="0.50"/><circle cx="555.6" cy="495.2" r="0.8" fill="#c7d2e0" fill-opacity="0.61"/><circle cx="530.7" cy="572.6" r="0.6" fill="#c7d2e0" fill-opacity="0.31"/><circle cx="561.0" cy="552.8" r="1.4" fill="#c7d2e0" fill-opacity="0.24"/><circle cx="599.2" cy="149.0" r="0.6" fill="#c7d2e0" fill-opacity="0.62"/><circle cx="217.6" cy="171.3" r="1.1" fill="#c7d2e0" fill-opacity="0.18"/><circle cx="263.8" cy="271.3" r="0.9" fill="#c7d2e0" fill-opacity="0.53"/><circle cx="441.0" cy="461.3" r="0.4" fill="#c7d2e0" fill-opacity="0.32"/><circle cx="327.9" cy="458.5" r="1.3" fill="#c7d2e0" fill-opacity="0.32"/><circle cx="347.8" cy="47.8" r="2.1" fill="#c7d2e0" fill-opacity="0.29"/><circle cx="202.6" cy="212.6" r="0.5" fill="#c7d2e0" fill-opacity="0.19"/><circle cx="481.7" cy="129.0" r="1.7" fill="#c7d2e0" fill-opacity="0.52"/><circle cx="558.8" cy="271.0" r="1.8" fill="#c7d2e0" fill-opacity="0.20"/><circle cx="490.6" cy="423.0" r="2.1" fill="#c7d2e0" fill-opacity="0.30"/><circle cx="427.9" cy="147.2" r="1.4" fill="#c7d2e0" fill-opacity="0.37"/></g>
  <rect width="800" height="600" filter="url(#grain-workpixel)" opacity="0.5"/>
  <g>
    <path d="M16 42 L16 16 L42 16" stroke="#d8b367" stroke-opacity="0.7" stroke-width="1.5" fill="none"/>
    <path d="M758 16 L784 16 L784 42" stroke="#d8b367" stroke-opacity="0.7" stroke-width="1.5" fill="none"/>
    <path d="M784 558 L784 584 L758 584" stroke="#d8b367" stroke-opacity="0.7" stroke-width="1.5" fill="none"/>
    <path d="M42 584 L16 584 L16 558" stroke="#d8b367" stroke-opacity="0.7" stroke-width="1.5" fill="none"/>
  </g>
  <g font-family="'JetBrains Mono', monospace">
    <rect x="20" y="556" width="120" height="24" rx="12"
      fill="#04060a" fill-opacity="0.55" stroke="#d8b367" stroke-opacity="0.4"/>
    <circle cx="36" cy="568" r="3" fill="#d8b367"/>
    <text x="48" y="572" fill="#c7d2e0" fill-opacity="0.85" font-size="11" letter-spacing="2">PIXEL LAB</text>
  </g>
</svg>