<svg xmlns="http://www.w3.org/2000/svg" width="800" height="600" viewBox="0 0 800 600" role="img" aria-label="work-inkvoker placeholder">
  
  <defs>
    <radialGradient id="aur-workinkvoker" cx="32%" cy="8%" r="90%">
      <stop offset="0%" stop-color="#5fd7d2" stop-opacity="0.55"/>
      <stop offset="38%" stop-color="#8a7cf0" stop-opacity="0.18"/>
      <stop offset="100%" stop-color="#04060a" stop-opacity="0"/>
    </radialGradient>
    <linearGradient id="bg-workinkvoker" x1="0" y1="0" x2="1" y2="1">
      <stop offset="0%" stop-color="#0b1220"/>
      <stop offset="55%" stop-color="#070b12"/>
      <stop offset="100%" stop-color="#04060a"/>
    </linearGradient>
    <linearGradient id="ink-workinkvoker" x1="0" y1="0" x2="1" y2="1">
      <stop offset="0%" stop-color="#5fd7d2" stop-opacity="0.9"/>
      <stop offset="100%" stop-color="#8a7cf0" stop-opacity="0.5"/>
    </linearGradient>
    <filter id="soft-workinkvoker" x="-40%" y="-40%" width="180%" height="180%">
      <feGaussianBlur stdDeviation="22"/>
    </filter>
    <filter id="grain-workinkvoker">
      <feTurbulence type="fractalNoise" baseFrequency="0.85" numOctaves="2" stitchTiles="stitch"/>
      <feColorMatrix type="saturate" values="0"/>
      <feComponentTransfer><feFuncA type="linear" slope="0.06"/></feComponentTransfer>
    </filter>
  </defs>
  <rect width="800" height="600" fill="url(#bg-workinkvoker)"/>
  <rect width="800" height="600" fill="url(#aur-workinkvoker)"/>
  <g><line x1="0" y1="0" x2="0" y2="600" stroke="#8ca5c8" stroke-opacity="0.05" stroke-width="1"/><line x1="40" y1="0" x2="40" y2="600" stroke="#8ca5c8" stroke-opacity="0.05" stroke-width="1"/><line x1="80" y1="0" x2="80" y2="600" stroke="#8ca5c8" stroke-opacity="0.05" stroke-width="1"/><line x1="120" y1="0" x2="120" y2="600" stroke="#8ca5c8" stroke-opacity="0.05" stroke-width="1"/><line x1="160" y1="0" x2="160" y2="600" stroke="#8ca5c8" stroke-opacity="0.05" stroke-width="1"/><line x1="200" y1="0" x2="200" y2="600" stroke="#8ca5c8" stroke-opacity="0.05" stroke-width="1"/><line x1="240" y1="0" x2="240" y2="600" stroke="#8ca5c8" stroke-opacity="0.05" stroke-width="1"/><line x1="280" y1="0" x2="280" y2="600" stroke="#8ca5c8" stroke-opacity="0.05" stroke-width="1"/><line x1="320" y1="0" x2="320" y2="600" stroke="#8ca5c8" stroke-opacity="0.05" stroke-width="1"/><line x1="360" y1="0" x2="360" y2="600" stroke="#8ca5c8" stroke-opacity="0.05" stroke-width="1"/><line x1="400" y1="0" x2="400" y2="600" stroke="#8ca5c8" stroke-opacity="0.05" stroke-width="1"/><line x1="440" y1="0" x2="440" y2="600" stroke="#8ca5c8" stroke-opacity="0.05" stroke-width="1"/><line x1="480" y1="0" x2="480" y2="600" stroke="#8ca5c8" stroke-opacity="0.05" stroke-width="1"/><line x1="520" y1="0" x2="520" y2="600" stroke="#8ca5c8" stroke-opacity="0.05" stroke-width="1"/><line x1="560" y1="0" x2="560" y2="600" stroke="#8ca5c8" stroke-opacity="0.05" stroke-width="1"/><line x1="600" y1="0" x2="600" y2="600" stroke="#8ca5c8" stroke-opacity="0.05" stroke-width="1"/><line x1="640" y1="0" x2="640" y2="600" stroke="#8ca5c8" stroke-opacity="0.05" stroke-width="1"/><line x1="680" y1="0" x2="680" y2="600" stroke="#8ca5c8" stroke-opacity="0.05" stroke-width="1"/><line x1="720" y1="0" x2="720" y2="600" stroke="#8ca5c8" stroke-opacity="0.05" stroke-width="1"/><line x1="760" y1="0" x2="760" y2="600" stroke="#8ca5c8" stroke-opacity="0.05" stroke-width="1"/><line x1="800" y1="0" x2="800" y2="600" stroke="#8ca5c8" stroke-opacity="0.05" stroke-width="1"/><line x1="0" y1="0" x2="800" y2="0" stroke="#8ca5c8" stroke-opacity="0.05" stroke-width="1"/><line x1="0" y1="40" x2="800" y2="40" stroke="#8ca5c8" stroke-opacity="0.05" stroke-width="1"/><line x1="0" y1="80" x2="800" y2="80" stroke="#8ca5c8" stroke-opacity="0.05" stroke-width="1"/><line x1="0" y1="120" x2="800" y2="120" stroke="#8ca5c8" stroke-opacity="0.05" stroke-width="1"/><line x1="0" y1="160" x2="800" y2="160" stroke="#8ca5c8" stroke-opacity="0.05" stroke-width="1"/><line x1="0" y1="200" x2="800" y2="200" stroke="#8ca5c8" stroke-opacity="0.05" stroke-width="1"/><line x1="0" y1="240" x2="800" y2="240" stroke="#8ca5c8" stroke-opacity="0.05" stroke-width="1"/><line x1="0" y1="280" x2="800" y2="280" stroke="#8ca5c8" stroke-opacity="0.05" stroke-width="1"/><line x1="0" y1="320" x2="800" y2="320" stroke="#8ca5c8" stroke-opacity="0.05" stroke-width="1"/><line x1="0" y1="360" x2="800" y2="360" stroke="#8ca5c8" stroke-opacity="0.05" stroke-width="1"/><line x1="0" y1="400" x2="800" y2="400" stroke="#8ca5c8" stroke-opacity="0.05" stroke-width="1"/><line x1="0" y1="440" x2="800" y2="440" stroke="#8ca5c8" stroke-opacity="0.05" stroke-width="1"/><line x1="0" y1="480" x2="800" y2="480" stroke="#8ca5c8" stroke-opacity="0.05" stroke-width="1"/><line x1="0" y1="520" x2="800" y2="520" stroke="#8ca5c8" stroke-opacity="0.05" stroke-width="1"/><line x1="0" y1="560" x2="800" y2="560" stroke="#8ca5c8" stroke-opacity="0.05" stroke-width="1"/><line x1="0" y1="600" x2="800" y2="600" stroke="#8ca5c8" stroke-opacity="0.05" stroke-width="1"/></g>
  
      <circle cx="496" cy="252" r="168.00000000000003" fill="url(#ink-workinkvoker)" fill-opacity="0.18" filter="url(#soft-workinkvoker)"/>
      <circle cx="496" cy="252" r="168.00000000000003" fill="none" stroke="url(#ink-workinkvoker)" stroke-opacity="0.6" stroke-width="1.5"/>
      <circle cx="496" cy="252" r="104.16000000000001" fill="none" stroke="#c7d2e0" stroke-opacity="0.18" stroke-width="1"/>
      <g filter="url(#soft-workinkvoker)" opacity="0.9"><path d="M -80 318.6499101199792
      C 233.77003850270296 119.58159829014488, 591.0809975748604 517.7182219498136, 880.0000000000001 239.02258538804546" fill="none" stroke="#5fd7d2" stroke-opacity="0.25083934641695566" stroke-width="1.228241808393095" stroke-linecap="round"/><path d="M -80 391.83341632406996
      C 249.83907902842367 304.36523713645636, 550.7558452130193 479.30159551168356, 880.0000000000001 356.84614464902455" fill="none" stroke="#8a7cf0" stroke-opacity="0.14481445637178011" stroke-width="1.464949824024213" stroke-linecap="round"/><path d="M -80 121.69536614830034
      C 244.61806820813058 40.77736812941204, 607.7222202643105 202.61336416718865, 880.0000000000001 89.328166940745" fill="none" stroke="#5fd7d2" stroke-opacity="0.14329829592800195" stroke-width="1.9961024215901508" stroke-linecap="round"/></g>
  <g><circle cx="443.9" cy="413.0" r="2.1" fill="#c7d2e0" fill-opacity="0.65"/><circle cx="341.5" cy="479.7" r="0.8" fill="#c7d2e0" fill-opacity="0.37"/><circle cx="505.0" cy="541.1" r="1.9" fill="#c7d2e0" fill-opacity="0.47"/><circle cx="655.7" cy="409.3" r="1.0" fill="#c7d2e0" fill-opacity="0.41"/><circle cx="512.2" cy="160.3" r="1.0" fill="#c7d2e0" fill-opacity="0.43"/><circle cx="437.8" cy="425.2" r="0.8" fill="#c7d2e0" fill-opacity="0.61"/><circle cx="109.7" cy="501.3" r="1.4" fill="#c7d2e0" fill-opacity="0.20"/><circle cx="674.8" cy="143.9" r="0.8" fill="#c7d2e0" fill-opacity="0.65"/><circle cx="51.6" cy="248.4" r="1.4" fill="#c7d2e0" fill-opacity="0.32"/><circle cx="43.0" cy="179.9" r="0.5" fill="#c7d2e0" fill-opacity="0.26"/><circle cx="122.2" cy="462.9" r="1.3" fill="#c7d2e0" fill-opacity="0.58"/><circle cx="152.6" cy="487.6" r="0.6" fill="#c7d2e0" fill-opacity="0.20"/><circle cx="106.5" cy="243.7" r="0.7" fill="#c7d2e0" fill-opacity="0.29"/><circle cx="243.3" cy="240.9" r="1.7" fill="#c7d2e0" fill-opacity="0.23"/><circle cx="610.6" cy="525.0" r="1.4" fill="#c7d2e0" fill-opacity="0.28"/><circle cx="530.0" cy="449.6" r="1.8" fill="#c7d2e0" fill-opacity="0.16"/><circle cx="531.6" cy="412.0" r="1.1" fill="#c7d2e0" fill-opacity="0.24"/><circle cx="597.5" cy="313.8" r="1.8" fill="#c7d2e0" fill-opacity="0.42"/><circle cx="778.5" cy="454.2" r="2.1" fill="#c7d2e0" fill-opacity="0.20"/><circle cx="46.1" cy="516.2" r="0.8" fill="#c7d2e0" fill-opacity="0.64"/><circle cx="641.8" cy="255.5" r="1.1" fill="#c7d2e0" fill-opacity="0.55"/><circle cx="586.9" cy="250.3" r="0.8" fill="#c7d2e0" fill-opacity="0.30"/><circle cx="414.5" cy="22.5" r="1.0" fill="#c7d2e0" fill-opacity="0.48"/><circle cx="787.2" cy="588.5" r="1.2" fill="#c7d2e0" fill-opacity="0.34"/><circle cx="661.9" cy="50.3" r="1.4" fill="#c7d2e0" fill-opacity="0.60"/><circle cx="265.5" cy="385.3" r="0.9" fill="#c7d2e0" fill-opacity="0.40"/><circle cx="542.4" cy="544.8" r="1.2" fill="#c7d2e0" fill-opacity="0.51"/><circle cx="537.4" cy="319.8" r="1.3" fill="#c7d2e0" fill-opacity="0.52"/><circle cx="777.2" cy="584.1" r="0.4" fill="#c7d2e0" fill-opacity="0.34"/><circle cx="110.2" cy="74.6" r="0.8" fill="#c7d2e0" fill-opacity="0.38"/></g>
  <rect width="800" height="600" filter="url(#grain-workinkvoker)" opacity="0.5"/>
  <g>
    <path d="M16 42 L16 16 L42 16" stroke="#5fd7d2" stroke-opacity="0.7" stroke-width="1.5" fill="none"/>
    <path d="M758 16 L784 16 L784 42" stroke="#5fd7d2" stroke-opacity="0.7" stroke-width="1.5" fill="none"/>
    <path d="M784 558 L784 584 L758 584" stroke="#5fd7d2" stroke-opacity="0.7" stroke-width="1.5" fill="none"/>
    <path d="M42 584 L16 584 L16 558" stroke="#5fd7d2" stroke-opacity="0.7" stroke-width="1.5" fill="none"/>
  </g>
  <g font-family="'JetBrains Mono', monospace">
    <rect x="20" y="556" width="120" height="24" rx="12"
      fill="#04060a" fill-opacity="0.55" stroke="#5fd7d2" stroke-opacity="0.4"/>
    <circle cx="36" cy="568" r="3" fill="#5fd7d2"/>
    <text x="48" y="572" fill="#c7d2e0" fill-opacity="0.85" font-size="11" letter-spacing="2">INKVOKER</text>
  </g>
</svg>